<?xml version="1.0" standalone="no"?>
<!DOCTYPE svg PUBLIC "-//W3C//DTD SVG 20010904//EN"
 "http://www.w3.org/TR/2001/REC-SVG-20010904/DTD/svg10.dtd">
<svg version="1.0" xmlns="http://www.w3.org/2000/svg"
 width="3695.000000pt" height="3695.000000pt" viewBox="0 0 3695.000000 3695.000000"
 preserveAspectRatio="xMidYMid meet">
<metadata>
Created by potrace 1.14, written by Peter Selinger 2001-2017
</metadata>
<g transform="translate(0.000000,3695.000000) scale(0.100000,-0.100000)"
fill="#000000" stroke="none">
<path d="M18524 36915 c-16 -13 -17 -14 -1 -9 9 3 17 4 17 2 0 -8 -38 -49 -44
-49 -21 3 -26 -2 -26 -27 0 -16 -8 -34 -20 -42 -11 -8 -20 -23 -20 -33 0 -13
-5 -17 -16 -13 -10 4 -13 2 -8 -6 5 -7 2 -9 -9 -5 -12 5 -16 0 -14 -21 1 -17
-3 -26 -10 -24 -7 1 -12 -1 -12 -5 1 -5 1 -21 -1 -38 -1 -26 -3 -27 -10 -10
-7 16 -9 14 -9 -15 -1 -25 -8 -39 -23 -50 -13 -8 -26 -13 -30 -12 -4 1 -5 -5
-2 -13 4 -8 10 -15 16 -15 5 0 7 4 3 9 -3 5 -2 12 3 15 4 2 9 -4 9 -15 1 -14
-5 -19 -24 -19 -18 0 -24 -4 -20 -14 3 -8 -1 -17 -10 -20 -8 -4 -13 -13 -9
-21 3 -8 -1 -21 -9 -29 -8 -8 -15 -22 -15 -30 0 -9 -5 -16 -11 -16 -5 0 -7 4
-4 10 3 6 -1 7 -9 4 -9 -3 -16 -17 -16 -29 0 -13 -4 -27 -10 -30 -5 -3 -10
-15 -10 -26 0 -11 -7 -19 -16 -19 -8 0 -12 -4 -9 -10 4 -6 -5 -10 -20 -10 -22
0 -25 -4 -21 -25 3 -14 -2 -31 -10 -39 -8 -8 -14 -26 -14 -39 0 -14 -5 -27
-10 -29 -6 -2 -12 -13 -13 -25 -1 -17 -5 -20 -19 -12 -10 5 -18 6 -19 2 -4
-47 -11 -67 -29 -83 -11 -10 -20 -22 -19 -26 5 -28 -3 -44 -21 -44 -11 0 -20
-6 -20 -14 0 -8 -6 -17 -12 -19 -10 -4 -10 -6 0 -6 6 -1 12 -6 12 -12 0 -5 -4
-7 -10 -4 -5 3 -10 -3 -10 -14 0 -10 -5 -21 -11 -23 -5 -2 -12 -12 -13 -23 -2
-11 -8 -19 -13 -18 -6 1 -10 -6 -10 -15 0 -46 -3 -57 -12 -43 -10 16 -31 6
-31 -15 0 -8 -4 -14 -10 -14 -5 0 -10 -16 -10 -36 0 -19 -4 -33 -9 -30 -11 7
-24 -41 -16 -54 4 -6 0 -10 -9 -10 -8 0 -17 6 -19 13 -3 6 -6 2 -6 -9 -1 -12
-9 -25 -18 -28 -15 -6 -15 -8 -3 -16 13 -8 13 -10 -2 -10 -11 0 -15 -6 -11
-20 3 -11 0 -20 -6 -20 -6 0 -11 -9 -11 -19 0 -13 -8 -21 -22 -23 -18 -2 -22
-8 -20 -27 3 -17 0 -21 -10 -15 -10 6 -10 4 1 -10 12 -15 12 -17 0 -14 -8 2
-13 -3 -11 -11 2 -8 -3 -11 -11 -8 -10 4 -13 -2 -11 -21 3 -30 -12 -53 -29
-46 -15 5 -37 -41 -38 -80 0 -17 -3 -25 -6 -18 -9 24 -19 12 -16 -20 2 -18 0
-27 -3 -20 -9 19 -31 14 -37 -8 -3 -12 -1 -17 5 -14 5 3 4 -3 -3 -14 -7 -12
-17 -18 -23 -15 -5 3 -6 1 -2 -5 3 -6 2 -13 -3 -16 -5 -3 -7 -15 -4 -26 3 -11
0 -20 -6 -20 -6 0 -11 -7 -11 -15 0 -8 -4 -15 -10 -15 -5 0 -10 -13 -10 -29 0
-23 -5 -30 -22 -33 -13 -2 -23 -9 -23 -16 0 -7 -6 -16 -13 -21 -7 -4 -10 -15
-7 -23 4 -9 1 -19 -6 -24 -7 -4 -10 -3 -5 4 3 6 1 14 -5 18 -9 5 -10 -1 -5
-19 9 -38 -2 -59 -25 -46 -16 8 -19 6 -20 -13 -1 -13 0 -31 1 -42 1 -10 -3
-15 -8 -12 -6 3 -13 -1 -16 -10 -3 -8 -9 -13 -14 -10 -4 2 -6 -11 -4 -30 4
-29 1 -34 -17 -34 -12 0 -21 -4 -21 -10 0 -21 -2 -25 -16 -33 -8 -4 -14 -21
-14 -37 0 -15 -5 -30 -11 -32 -6 -2 -12 -15 -12 -30 -1 -14 -4 -26 -7 -26 -26
2 -39 -4 -34 -16 3 -7 -2 -16 -11 -20 -9 -3 -14 -10 -10 -15 3 -6 0 -13 -7
-18 -7 -4 -13 -19 -13 -33 0 -14 -6 -26 -13 -26 -6 -1 -16 -2 -22 -3 -5 0 -10
-8 -10 -16 0 -8 -4 -15 -10 -15 -5 0 -10 -5 -10 -11 0 -5 4 -8 8 -5 5 3 9 -1
9 -9 0 -8 -3 -13 -5 -10 -9 9 -31 -30 -32 -57 0 -15 -5 -30 -12 -34 -7 -5 -8
-3 -3 6 5 8 4 11 -2 7 -6 -4 -9 -18 -8 -32 2 -15 -2 -25 -8 -24 -30 4 -39 -2
-34 -21 3 -13 0 -20 -9 -20 -8 0 -13 -3 -13 -7 4 -23 -2 -43 -11 -38 -8 5 -15
-31 -11 -57 0 -5 -11 -8 -25 -8 -14 0 -23 -4 -20 -9 4 -5 0 -11 -6 -13 -7 -3
-14 -18 -14 -34 -3 -44 -3 -46 -15 -39 -6 4 -9 0 -7 -11 2 -13 -4 -20 -19 -22
-18 -3 -23 -10 -23 -33 0 -20 -5 -29 -16 -29 -8 0 -12 -5 -9 -10 4 -6 1 -18
-7 -27 -9 -12 -9 -15 0 -9 17 10 15 -9 -3 -24 -8 -7 -15 -20 -15 -28 0 -12 -3
-13 -12 -4 -7 7 -17 12 -22 12 -6 0 -4 -5 4 -10 12 -7 12 -10 1 -10 -7 0 -11
-6 -7 -15 3 -8 -1 -21 -9 -29 -8 -8 -15 -22 -15 -30 0 -9 -4 -16 -10 -16 -5 0
-10 -13 -10 -30 0 -23 -4 -30 -20 -30 -11 0 -20 -5 -20 -11 0 -6 -7 -17 -16
-26 -8 -9 -13 -22 -10 -30 3 -7 -1 -16 -9 -19 -8 -4 -12 -10 -9 -16 3 -5 -2
-18 -11 -28 -9 -10 -15 -24 -14 -32 3 -27 -1 -37 -15 -32 -17 7 -40 -31 -30
-48 5 -7 2 -9 -8 -6 -11 5 -14 0 -10 -19 3 -18 1 -24 -7 -19 -6 4 -12 2 -12
-3 -1 -6 -3 -15 -4 -21 -1 -5 -3 -17 -4 -25 0 -8 -10 -15 -22 -15 -11 0 -18
-4 -14 -9 3 -5 -2 -16 -10 -24 -8 -9 -15 -31 -15 -49 0 -25 -3 -29 -10 -18 -8
12 -10 11 -10 -7 0 -13 -5 -23 -11 -23 -5 0 -7 -6 -3 -12 5 -9 2 -9 -9 1 -14
11 -17 11 -18 0 -2 -32 -9 -54 -18 -57 -5 -2 -7 -10 -4 -18 3 -7 -2 -17 -11
-20 -9 -4 -16 -14 -15 -23 3 -33 -1 -42 -18 -39 -14 2 -19 -5 -21 -30 -2 -18
-10 -36 -18 -39 -7 -3 -11 -9 -8 -14 3 -5 -1 -9 -9 -9 -9 0 -13 -10 -12 -27 1
-32 -16 -57 -27 -40 -4 6 -10 -1 -13 -16 -4 -15 -11 -24 -16 -21 -5 3 -9 -11
-9 -30 0 -20 -4 -36 -10 -36 -5 0 -10 -9 -10 -20 0 -11 -6 -23 -14 -26 -8 -3
-12 -13 -9 -25 5 -17 -9 -25 -39 -20 -4 0 -5 -5 -2 -13 3 -7 -2 -19 -10 -26
-9 -7 -13 -16 -10 -22 3 -5 -1 -20 -10 -33 -9 -13 -16 -36 -16 -50 0 -14 -5
-25 -11 -25 -5 0 -7 5 -4 11 4 6 -2 5 -13 -2 -11 -7 -18 -19 -15 -26 3 -8 -3
-20 -13 -28 -16 -12 -17 -16 -5 -24 11 -7 9 -10 -9 -16 -18 -6 -20 -9 -9 -16
11 -7 11 -9 1 -9 -7 0 -10 -4 -7 -10 6 -10 -7 -14 -33 -11 -7 1 -12 -4 -11
-11 4 -31 -2 -59 -11 -53 -5 3 -10 -3 -10 -14 0 -12 -4 -21 -10 -21 -5 0 -10
-13 -10 -29 0 -17 -5 -33 -12 -37 -7 -4 -8 -3 -4 4 4 7 4 12 1 12 -10 0 -35
-28 -35 -39 0 -6 -4 -11 -8 -11 -5 0 -8 -13 -7 -30 1 -19 -3 -30 -12 -30 -8 0
-13 -12 -13 -35 0 -33 -1 -35 -21 -24 -13 6 -19 7 -15 1 3 -6 -1 -17 -9 -25
-8 -9 -15 -27 -15 -40 0 -14 -7 -28 -16 -31 -9 -3 -14 -13 -10 -21 3 -8 0 -18
-7 -22 -7 -5 -13 -16 -14 -25 -1 -35 -3 -38 -23 -38 -17 0 -23 -8 -19 -22 0
-2 -6 -16 -15 -32 -8 -16 -13 -33 -11 -36 2 -4 -11 -22 -30 -40 -21 -20 -35
-44 -35 -58 0 -13 -4 -21 -9 -17 -6 3 -8 -4 -6 -15 2 -11 -3 -26 -11 -34 -8
-8 -14 -27 -14 -42 0 -20 -3 -24 -13 -16 -8 7 -18 7 -27 2 -13 -9 -13 -10 0
-10 9 0 11 -3 5 -8 -6 -4 -10 -14 -10 -22 0 -8 -4 -18 -9 -22 -5 -3 -11 -19
-14 -35 -2 -15 -7 -29 -13 -31 -5 -2 -9 -10 -9 -18 0 -13 -12 -18 -32 -15 -5
0 -8 -11 -8 -27 0 -21 -2 -24 -10 -12 -5 8 -10 10 -10 5 0 -6 6 -17 13 -24 10
-11 10 -13 0 -7 -8 4 -13 1 -13 -8 0 -9 -5 -16 -11 -16 -6 0 -9 -7 -5 -15 3
-8 1 -15 -4 -15 -5 0 -7 -9 -5 -20 3 -15 -2 -20 -20 -20 -18 0 -23 -5 -20 -20
2 -13 -2 -20 -11 -20 -9 0 -14 -11 -14 -36 0 -21 -4 -33 -10 -29 -5 3 -10 -3
-10 -15 0 -14 -4 -19 -12 -14 -8 5 -7 0 2 -11 11 -14 12 -19 3 -22 -7 -3 -13
-13 -13 -24 0 -10 -7 -19 -15 -19 -8 0 -15 6 -15 13 0 8 -3 7 -9 -3 -6 -8 -8
-17 -5 -21 8 -13 -28 -89 -38 -83 -6 4 -8 -7 -6 -27 2 -28 0 -34 -16 -34 -11
0 -21 -7 -24 -15 -3 -8 -10 -21 -16 -29 -6 -7 -9 -26 -8 -42 3 -22 0 -28 -11
-23 -12 4 -15 -1 -13 -20 2 -15 -1 -23 -7 -19 -6 4 -8 0 -4 -11 4 -11 3 -15
-4 -11 -6 4 -8 14 -5 22 3 8 2 12 -3 8 -5 -3 -12 1 -14 7 -3 7 -5 2 -5 -12 1
-47 -2 -61 -12 -55 -6 4 -10 3 -9 -2 5 -26 -2 -63 -11 -58 -6 4 -10 -5 -10
-19 0 -22 -5 -26 -27 -26 -22 0 -25 -2 -13 -10 8 -5 10 -10 3 -10 -6 0 -10
-13 -9 -29 2 -22 -2 -27 -13 -23 -10 4 -13 1 -8 -10 3 -10 0 -19 -9 -22 -8 -3
-14 -9 -13 -13 5 -32 -3 -53 -21 -53 -20 0 -22 -5 -23 -47 0 -12 -4 -20 -8
-17 -5 3 -9 -2 -9 -10 0 -9 -5 -16 -11 -16 -5 0 -8 -4 -4 -9 3 -5 1 -12 -4
-16 -6 -3 -8 -19 -6 -36 3 -27 2 -29 -13 -17 -9 8 -13 8 -9 1 8 -13 -20 -46
-33 -38 -5 3 -7 -4 -5 -15 2 -11 -3 -26 -11 -34 -8 -8 -14 -26 -14 -41 0 -14
-6 -28 -14 -31 -8 -3 -13 -14 -11 -25 3 -15 -2 -19 -22 -19 -18 0 -24 -4 -19
-15 3 -8 1 -15 -3 -15 -5 0 -7 -10 -3 -22 4 -16 2 -19 -8 -13 -10 6 -12 3 -7
-14 4 -15 2 -21 -7 -18 -7 3 -13 -6 -14 -25 -3 -39 -9 -48 -26 -42 -7 3 -16
-3 -20 -13 -3 -10 -9 -24 -12 -32 -4 -9 -2 -11 5 -7 7 5 9 1 5 -8 -3 -9 -11
-16 -17 -16 -6 0 -8 -3 -4 -6 3 -4 0 -13 -8 -20 -8 -8 -12 -23 -10 -34 3 -18
-5 -25 -27 -21 -4 0 -10 -10 -14 -24 -3 -14 -10 -25 -15 -25 -5 0 -9 -13 -9
-30 0 -19 -5 -30 -14 -30 -9 0 -12 -8 -8 -26 3 -18 1 -25 -6 -20 -19 11 -43
-5 -37 -25 4 -11 0 -26 -9 -35 -9 -8 -16 -29 -16 -45 0 -18 -4 -28 -10 -24 -6
4 -10 -5 -10 -20 0 -15 -4 -24 -10 -20 -10 6 -14 -13 -11 -47 1 -11 -4 -15
-16 -12 -18 5 -38 -26 -45 -71 -2 -11 -9 -26 -16 -34 -8 -8 -12 -22 -9 -31 3
-10 1 -24 -4 -31 -5 -8 -9 -9 -9 -3 0 6 -7 11 -15 11 -9 0 -15 -10 -15 -24 0
-12 -4 -23 -10 -23 -5 0 -10 -14 -10 -30 0 -17 -6 -33 -14 -36 -7 -3 -12 -16
-10 -30 2 -20 0 -23 -11 -14 -11 9 -16 6 -25 -11 -10 -17 -10 -20 2 -13 10 6
11 5 1 -8 -7 -8 -10 -18 -6 -21 3 -4 -1 -7 -10 -7 -13 0 -17 -9 -17 -36 0 -21
-4 -33 -10 -29 -6 3 -10 -5 -10 -19 0 -14 -4 -28 -10 -31 -5 -3 -10 -1 -10 5
0 6 -4 8 -10 5 -5 -3 -10 -15 -10 -26 0 -10 -6 -19 -12 -19 -9 0 -8 -4 2 -10
8 -5 11 -10 5 -10 -15 0 -36 -50 -22 -50 7 0 5 -6 -4 -13 -9 -7 -15 -20 -13
-29 3 -21 -7 -23 -25 -5 -11 10 -13 10 -7 0 4 -7 2 -13 -3 -13 -6 0 -11 -7
-11 -15 0 -8 -4 -15 -10 -15 -5 0 -10 -5 -10 -11 0 -5 4 -8 8 -5 5 3 9 -1 9
-9 0 -8 -4 -12 -9 -9 -4 3 -8 -4 -8 -16 0 -12 -4 -18 -10 -15 -5 3 -11 -2 -11
-12 -1 -10 -2 -22 -4 -28 -1 -5 -3 -16 -3 -23 -1 -7 -6 -11 -11 -7 -6 3 -8 -4
-6 -15 3 -14 -1 -20 -15 -20 -10 0 -22 -5 -26 -12 -5 -8 -2 -9 10 -5 11 5 15
3 10 -5 -5 -8 -2 -9 10 -5 10 4 15 3 11 -3 -4 -6 -14 -9 -23 -8 -11 2 -18 -5
-20 -21 -3 -19 -6 -21 -13 -10 -7 10 -9 4 -7 -21 1 -23 -2 -34 -10 -32 -7 1
-12 -9 -12 -23 0 -22 -9 -30 -32 -26 -5 0 -8 -14 -8 -33 0 -22 -6 -36 -16 -40
-9 -4 -14 -13 -10 -21 3 -8 0 -15 -7 -15 -7 0 -13 -14 -13 -31 -1 -17 -7 -36
-14 -42 -10 -9 -11 -9 -6 1 4 7 1 12 -8 12 -11 0 -16 -9 -16 -29 0 -17 -4 -33
-10 -36 -5 -3 -10 -15 -10 -26 0 -11 -7 -22 -15 -25 -9 -4 -13 -15 -11 -29 5
-28 -8 -53 -19 -35 -11 17 -25 -7 -25 -43 0 -16 -4 -26 -10 -22 -6 4 -10 -5
-10 -19 0 -14 -4 -26 -10 -26 -5 0 -10 -13 -10 -30 0 -22 -5 -30 -18 -30 -19
0 -47 -52 -46 -87 1 -13 -5 -23 -12 -23 -9 0 -14 -11 -14 -30 0 -16 -4 -30
-10 -30 -5 0 -10 -11 -10 -24 0 -25 -20 -48 -20 -24 -1 8 -6 6 -15 -6 -8 -10
-12 -23 -9 -28 3 -4 -4 -21 -16 -37 -12 -19 -16 -32 -10 -36 6 -4 4 -12 -5
-22 -9 -9 -14 -22 -11 -29 4 -10 -3 -14 -19 -14 -22 0 -25 -4 -25 -36 0 -21
-4 -33 -10 -29 -6 4 -10 -5 -10 -20 0 -15 -4 -24 -10 -20 -6 4 -10 -8 -10 -29
0 -29 -4 -36 -19 -36 -21 0 -29 -14 -26 -47 1 -14 -4 -23 -13 -23 -9 0 -12 -6
-8 -15 3 -9 0 -18 -8 -21 -8 -3 -13 -19 -12 -37 0 -26 -3 -32 -19 -32 -15 0
-21 -8 -23 -30 -2 -16 -11 -34 -19 -41 -9 -6 -13 -16 -9 -23 4 -6 0 -14 -9
-17 -10 -4 -13 -13 -9 -26 7 -23 -12 -49 -32 -41 -9 3 -14 -2 -14 -16 0 -12
-4 -21 -10 -21 -5 0 -10 -16 -10 -35 0 -19 -4 -35 -10 -35 -5 0 -10 -13 -10
-30 0 -16 -4 -30 -10 -30 -5 0 -10 -11 -10 -25 0 -15 -5 -25 -12 -24 -34 4
-42 -1 -22 -16 11 -9 13 -13 4 -10 -11 4 -16 -2 -18 -22 -1 -15 -6 -29 -10
-32 -5 -3 -8 -17 -8 -31 0 -14 -6 -24 -12 -22 -10 2 -18 -40 -13 -70 2 -12
-23 -10 -36 3 -7 7 -9 3 -6 -15 4 -18 0 -28 -11 -32 -9 -3 -14 -10 -11 -14 3
-5 -2 -15 -10 -23 -11 -12 -12 -17 -2 -20 9 -4 9 -8 -1 -15 -8 -5 -13 -12 -13
-16 3 -20 -1 -26 -19 -26 -16 0 -20 -7 -20 -30 0 -16 -4 -30 -10 -30 -5 0 -10
-8 -10 -18 0 -10 -6 -24 -12 -31 -10 -11 -10 -13 0 -7 7 5 12 1 12 -9 0 -9 -4
-14 -9 -11 -5 3 -12 -5 -15 -19 -4 -14 -11 -25 -17 -25 -6 0 -7 6 -3 13 6 9 4
9 -8 -1 -9 -7 -15 -25 -14 -42 2 -21 -2 -30 -13 -30 -8 0 -11 -3 -8 -6 3 -4 2
-15 -4 -25 -7 -13 -6 -19 1 -19 6 0 8 -5 5 -10 -4 -6 -11 -8 -16 -5 -5 4 -9
-1 -9 -11 0 -9 -11 -27 -25 -40 -15 -14 -22 -29 -19 -39 4 -9 -1 -24 -10 -34
-9 -10 -14 -25 -11 -33 4 -9 0 -22 -7 -29 -20 -21 -38 -67 -38 -96 0 -23 -2
-24 -17 -12 -11 10 -14 10 -9 2 4 -7 2 -13 -3 -13 -6 0 -11 -7 -11 -16 0 -9
-5 -12 -12 -8 -9 5 -9 2 1 -9 7 -9 9 -17 4 -17 -5 0 -10 -7 -11 -15 -1 -8 -3
-22 -4 -30 -1 -8 -5 -12 -10 -9 -9 6 -11 -7 -8 -48 1 -14 -4 -29 -11 -34 -8
-4 -10 -3 -5 4 4 8 0 12 -11 12 -12 0 -19 -8 -20 -22 -1 -11 -6 -24 -10 -27
-5 -3 -8 -13 -8 -21 1 -8 -5 -24 -12 -35 -7 -11 -13 -33 -13 -49 0 -16 -3 -26
-7 -23 -3 4 -12 -1 -20 -11 -12 -16 -13 -16 -7 3 4 15 4 17 -4 6 -6 -8 -9 -23
-7 -33 2 -10 -1 -18 -6 -18 -6 0 -7 -5 -4 -10 4 -6 1 -17 -5 -25 -7 -8 -9 -15
-5 -15 5 0 0 -8 -9 -19 -9 -10 -16 -22 -15 -27 3 -20 -1 -44 -8 -43 -26 4 -33
-4 -33 -37 0 -21 -4 -33 -10 -29 -6 3 -10 -5 -10 -18 0 -14 -6 -27 -14 -30 -8
-3 -13 -14 -12 -24 4 -22 -11 -53 -25 -53 -6 0 -7 5 -3 12 5 7 3 8 -5 4 -7 -5
-10 -14 -7 -21 2 -7 -1 -18 -7 -25 -9 -10 -9 -11 0 -6 9 5 11 2 7 -8 -3 -9
-10 -14 -15 -11 -4 3 -6 -4 -4 -15 2 -11 -3 -26 -11 -34 -8 -8 -14 -28 -14
-45 0 -19 -5 -31 -13 -31 -9 0 -12 -10 -9 -30 4 -27 1 -30 -21 -30 -22 0 -25
-4 -21 -24 2 -14 -1 -28 -7 -32 -8 -4 -9 -3 -5 4 4 7 2 12 -3 12 -14 0 -14
-17 -1 -25 6 -4 3 -17 -10 -35 -11 -16 -20 -45 -21 -67 0 -30 -2 -34 -9 -18
-8 18 -9 18 -9 2 -1 -10 -5 -15 -11 -12 -6 4 -10 -5 -10 -19 0 -15 -6 -26 -13
-26 -9 0 -12 -10 -9 -30 3 -20 -1 -32 -10 -35 -10 -4 -14 -19 -13 -45 1 -22
-1 -38 -3 -35 -11 11 -42 -18 -42 -40 0 -13 -4 -27 -10 -30 -5 -3 -10 -15 -10
-26 0 -11 -4 -17 -10 -14 -6 4 -10 -8 -10 -29 0 -20 -5 -36 -11 -36 -5 0 -7
-6 -3 -12 5 -8 0 -7 -11 2 -11 9 -16 10 -11 3 4 -7 3 -13 -2 -13 -5 0 -9 -14
-10 -32 0 -17 -5 -34 -10 -37 -5 -3 -8 -14 -6 -23 1 -10 -4 -18 -13 -18 -8 0
-13 -8 -12 -17 4 -40 -2 -53 -21 -53 -16 0 -20 -7 -20 -30 0 -16 -4 -30 -10
-30 -5 0 -10 -14 -10 -31 0 -16 -4 -28 -8 -25 -5 3 -9 -1 -9 -9 0 -8 4 -15 9
-15 5 0 2 -7 -6 -16 -9 -8 -14 -20 -11 -25 4 -5 0 -9 -8 -9 -10 0 -14 -11 -13
-32 0 -26 -4 -34 -19 -36 -13 -2 -24 -15 -31 -37 -6 -19 -8 -32 -4 -30 4 2 2
-11 -4 -30 -6 -18 -14 -31 -18 -29 -7 5 -12 -25 -9 -52 1 -7 -10 -15 -23 -18
-18 -4 -24 -12 -21 -26 2 -11 -3 -27 -11 -35 -10 -10 -11 -15 -3 -15 8 0 8 -5
-2 -16 -8 -9 -12 -28 -11 -42 3 -15 0 -22 -7 -18 -7 5 -11 -3 -11 -18 0 -23
-9 -31 -32 -27 -5 0 -8 -10 -8 -22 0 -13 -7 -37 -15 -54 -8 -16 -13 -39 -11
-50 3 -12 -1 -24 -8 -26 -8 -3 -12 -20 -11 -41 1 -19 -1 -35 -4 -34 -25 2 -37
-5 -38 -24 -1 -13 -7 -24 -13 -26 -5 -2 -10 -19 -10 -38 0 -21 -4 -33 -10 -29
-10 6 -13 -9 -11 -60 2 -23 0 -27 -8 -15 -7 10 -11 11 -11 3 0 -7 -6 -13 -14
-13 -9 0 -13 -7 -11 -20 2 -11 -2 -20 -8 -20 -7 0 -13 -18 -14 -42 -2 -24 -7
-44 -13 -46 -5 -2 -10 -19 -10 -38 0 -21 -4 -33 -10 -29 -6 4 -10 -7 -10 -25
0 -17 -6 -38 -14 -46 -17 -17 -30 -19 -20 -2 4 6 3 8 -3 5 -5 -3 -9 -21 -8
-39 1 -18 -5 -43 -13 -55 -8 -13 -11 -23 -7 -23 4 0 3 -6 -4 -13 -8 -10 -7
-17 2 -26 9 -10 9 -11 -4 -6 -12 4 -16 1 -16 -12 0 -35 -3 -43 -17 -43 -8 0
-17 6 -19 13 -3 6 -6 -13 -6 -43 -1 -39 -4 -51 -11 -40 -7 11 -10 5 -11 -25
-1 -22 -1 -46 0 -53 1 -7 -4 -11 -11 -10 -8 2 -12 -4 -10 -14 2 -10 -2 -19 -8
-19 -5 -1 -14 -2 -20 -3 -5 0 -10 -4 -10 -8 0 -5 0 -11 0 -14 0 -4 6 -1 14 5
9 7 17 8 20 3 3 -6 -5 -13 -18 -16 -18 -4 -24 -12 -21 -27 2 -11 -2 -22 -11
-26 -12 -4 -12 -8 -2 -21 10 -12 10 -14 1 -8 -9 5 -13 -1 -13 -23 0 -16 -4
-31 -9 -33 -6 -1 -11 -21 -12 -44 -2 -25 -8 -41 -15 -41 -7 0 -11 4 -8 9 3 4
0 8 -5 8 -11 0 -16 -20 -12 -54 1 -11 -3 -22 -9 -26 -6 -4 -12 -21 -13 -38 -1
-18 -6 -32 -10 -32 -5 0 -5 -4 -2 -10 3 -5 2 -10 -2 -10 -5 0 -9 -10 -10 -21
-3 -30 -21 -48 -32 -30 -6 8 -9 -2 -9 -29 -1 -24 -6 -46 -12 -50 -6 -4 -10
-11 -9 -16 4 -25 -2 -54 -11 -49 -6 4 -10 -13 -10 -44 0 -27 -5 -53 -12 -57
-7 -5 -8 -3 -3 6 5 8 4 11 -2 7 -5 -3 -9 -25 -9 -47 1 -31 -2 -40 -14 -39 -28
3 -35 -1 -20 -11 10 -6 11 -10 3 -10 -8 0 -13 -14 -13 -35 0 -19 -4 -35 -10
-35 -5 0 -10 -13 -10 -30 0 -17 -5 -30 -12 -30 -10 0 -9 -3 1 -9 8 -5 9 -10 3
-12 -6 -2 -12 -22 -14 -44 -2 -22 -9 -41 -16 -41 -7 -1 -16 -2 -21 -3 -4 0 -7
-17 -6 -36 1 -20 -4 -40 -12 -46 -7 -6 -11 -15 -8 -19 3 -5 -1 -15 -9 -23 -8
-8 -16 -37 -17 -66 -2 -35 -6 -48 -13 -41 -12 12 -27 13 -25 3 5 -31 -3 -73
-13 -73 -9 0 -13 -16 -13 -46 0 -25 -5 -48 -10 -52 -6 -4 -10 -24 -9 -44 0
-20 -2 -37 -5 -36 -31 3 -39 -4 -39 -38 0 -20 -5 -41 -11 -47 -6 -6 -11 -28
-11 -49 0 -21 -4 -38 -10 -38 -5 0 -10 -18 -10 -40 0 -23 -5 -40 -11 -40 -8 0
-8 -5 1 -15 16 -20 6 -19 -14 1 -15 14 -16 13 -17 -13 -1 -15 -1 -34 0 -41 1
-8 -6 -21 -16 -29 -10 -8 -11 -11 -3 -7 12 6 13 5 4 -7 -7 -8 -11 -31 -10 -51
1 -20 -1 -35 -5 -32 -8 4 -21 -27 -18 -42 4 -24 -2 -55 -10 -50 -5 3 -9 -11
-9 -32 0 -61 0 -61 -30 -57 -15 2 -22 2 -15 -1 7 -3 9 -15 4 -32 -4 -15 -6
-37 -5 -49 1 -13 -4 -23 -10 -23 -7 0 -11 -18 -11 -45 1 -34 -3 -45 -15 -46
-10 0 -11 -2 -2 -6 6 -2 9 -10 5 -16 -5 -7 -9 -23 -9 -37 -2 -44 -4 -50 -15
-50 -5 0 -7 6 -3 13 5 8 2 8 -9 -2 -20 -16 -23 -36 -5 -25 11 6 11 4 1 -7 -7
-7 -13 -26 -13 -42 0 -15 -4 -26 -8 -23 -5 3 -9 -16 -11 -42 -1 -25 -7 -52
-12 -59 -6 -6 -11 -39 -12 -72 -1 -33 -4 -59 -7 -59 -32 3 -36 -4 -35 -53 1
-29 -3 -53 -9 -55 -6 -2 -11 -27 -11 -54 0 -32 -4 -49 -11 -46 -6 2 -11 -8
-11 -23 -5 -113 -7 -134 -12 -118 -10 26 -23 26 -28 -1 -2 -15 1 -21 8 -16 6
3 5 -4 -3 -17 -7 -13 -13 -43 -13 -66 1 -23 -2 -40 -6 -37 -11 6 -15 -17 -14
-73 1 -31 -3 -49 -8 -46 -6 3 -7 1 -3 -6 4 -6 2 -19 -6 -28 -11 -14 -11 -16 2
-8 12 7 13 6 4 -6 -6 -8 -11 -36 -12 -63 0 -27 -6 -54 -13 -60 -9 -8 -10 -8
-5 2 4 7 1 12 -7 12 -7 0 -14 -6 -14 -12 -1 -7 -2 -46 -3 -85 -2 -40 -7 -70
-11 -67 -5 3 -9 -37 -9 -90 0 -52 -4 -96 -10 -98 -5 -1 -10 -45 -12 -96 -1
-51 -5 -95 -10 -98 -5 -3 -9 -20 -8 -37 0 -105 -4 -147 -14 -147 -8 0 -8 -2 0
-8 15 -10 13 -109 -2 -109 -7 0 -10 6 -7 14 3 7 1 13 -5 13 -5 0 -9 -10 -8
-22 0 -13 6 -23 13 -23 6 0 15 -4 20 -9 4 -5 3 -6 -4 -3 -6 4 -14 1 -16 -5 -4
-10 -6 -10 -6 0 -1 6 -4 12 -8 12 -13 0 -11 -364 2 -372 7 -5 7 -8 -1 -8 -12
0 -12 -179 0 -199 6 -9 11 -9 24 1 15 12 16 11 4 -4 -8 -9 -21 -14 -30 -12
-15 5 -15 4 1 -6 9 -6 23 -8 30 -4 9 6 9 4 -1 -8 -7 -9 -9 -19 -4 -22 10 -6 9
-36 -1 -53 -4 -6 -1 -14 5 -16 10 -4 9 -6 -1 -6 -11 -1 -11 -4 -1 -16 9 -10 9
-15 1 -15 -6 0 -12 5 -12 10 -5 39 -4 57 3 72 5 10 4 19 -2 23 -9 6 -11 -1
-14 -50 -1 -11 -5 -26 -9 -32 -5 -9 1 -17 17 -25 29 -13 37 -44 9 -34 -16 5
-16 5 -3 -6 12 -10 16 -34 15 -108 0 -52 4 -98 10 -102 6 -5 5 -8 -3 -8 -9 0
-10 -5 -3 -19 6 -10 8 -21 4 -24 -3 -4 0 -14 8 -24 9 -11 10 -14 2 -9 -7 4
-13 2 -13 -3 0 -6 4 -11 9 -11 6 0 10 -47 10 -106 0 -71 5 -112 13 -122 10
-12 10 -14 1 -8 -7 4 -13 2 -13 -3 0 -6 5 -11 10 -11 6 0 10 -5 10 -11 0 -5
-4 -8 -8 -5 -5 3 -9 -1 -9 -9 0 -8 4 -12 9 -9 4 3 8 -40 8 -95 0 -61 4 -101
10 -101 6 0 10 -36 10 -87 0 -49 5 -95 11 -103 9 -13 10 -12 5 3 -3 10 -2 16
3 12 5 -3 12 1 15 7 3 7 3 3 0 -9 -3 -13 -1 -23 4 -23 5 0 8 -21 7 -47 -1 -34
3 -52 14 -61 14 -11 14 -11 -2 -6 -19 7 -21 -15 -3 -28 5 -3 10 -34 11 -68 1
-34 6 -65 11 -68 6 -4 10 -32 9 -62 0 -37 5 -59 15 -68 11 -10 11 -12 1 -6
-10 5 -12 3 -7 -5 5 -8 12 -9 20 -2 12 10 17 -13 19 -86 0 -18 6 -33 12 -33 8
0 11 -16 10 -48 -2 -31 3 -53 14 -66 9 -11 10 -16 4 -12 -14 8 -18 -10 -4 -18
4 -3 8 -26 7 -52 -1 -25 3 -48 8 -51 5 -4 6 0 1 8 -4 8 2 4 14 -8 13 -14 21
-35 21 -58 0 -19 5 -35 10 -35 6 0 10 -21 10 -46 0 -27 4 -43 10 -39 8 5 16
-74 11 -108 0 -4 6 -7 14 -7 8 0 15 6 15 13 0 9 2 9 9 -1 4 -8 7 -27 5 -43 -2
-16 1 -29 7 -29 6 0 6 -7 -1 -20 -8 -16 -8 -18 4 -14 11 4 13 -3 11 -31 -1
-20 3 -39 10 -43 7 -4 13 -16 13 -27 -1 -53 3 -65 20 -65 18 0 22 -10 23 -54
0 -10 6 -28 13 -40 7 -11 12 -34 11 -49 -1 -17 2 -26 9 -24 7 3 12 -12 12 -41
1 -26 7 -48 13 -50 6 -2 11 -18 12 -35 0 -18 3 -26 6 -19 2 6 12 12 21 12 15
0 15 -2 2 -10 -10 -6 -11 -10 -2 -10 7 0 12 -14 12 -35 0 -19 5 -35 11 -35 6
0 9 -9 6 -20 -3 -11 -1 -20 4 -20 4 0 6 -7 2 -16 -3 -9 -1 -19 5 -23 6 -4 12
-21 14 -39 2 -27 6 -32 27 -32 13 0 21 -3 18 -6 -3 -4 -1 -16 5 -28 7 -11 13
-37 15 -56 2 -19 8 -36 13 -38 6 -2 10 -18 10 -36 0 -31 2 -33 28 -28 22 4 25
2 15 -8 -8 -9 -9 -19 -2 -32 5 -10 6 -18 2 -18 -4 0 -3 -4 2 -8 6 -4 18 -21
27 -39 15 -30 15 -31 0 -27 -15 5 -15 4 1 -9 10 -8 17 -19 16 -23 -4 -26 2
-34 19 -25 16 8 18 5 20 -27 2 -20 7 -38 12 -40 6 -2 10 -11 10 -21 0 -9 4
-21 10 -27 5 -5 11 -22 12 -37 2 -18 8 -27 20 -27 10 0 19 -6 20 -12 3 -26 5
-34 19 -63 7 -16 17 -33 22 -36 5 -3 7 -12 6 -20 -2 -8 5 -29 14 -46 10 -18
17 -35 17 -38 -1 -23 2 -24 16 -11 20 20 30 21 14 1 -8 -10 -9 -15 -2 -15 6 0
9 -7 6 -15 -4 -8 1 -17 9 -21 9 -3 14 -14 12 -26 -4 -17 -2 -18 12 -6 15 12
15 11 4 -9 -7 -15 -8 -23 -1 -23 5 0 9 -6 7 -12 -1 -7 8 -14 21 -16 16 -2 22
-10 22 -27 0 -13 5 -27 10 -30 6 -3 10 -18 11 -33 0 -24 1 -25 9 -7 8 18 9 17
11 -7 3 -43 4 -48 9 -45 9 4 38 -27 37 -38 -1 -5 3 -9 9 -8 6 1 11 -10 10 -25
-1 -15 5 -31 11 -37 7 -5 14 -21 16 -35 3 -17 11 -26 26 -28 12 -2 19 -8 16
-13 -4 -5 0 -9 8 -9 9 0 13 -9 12 -25 -2 -16 2 -25 11 -25 8 0 13 -3 13 -7 -1
-5 -1 -19 0 -33 1 -20 3 -22 11 -10 7 11 10 11 10 2 0 -7 5 -10 10 -7 6 3 10
-1 10 -9 0 -9 5 -16 10 -16 6 0 10 -11 10 -25 0 -14 5 -25 10 -25 6 0 10 -9
10 -20 0 -11 6 -20 14 -20 9 0 13 -10 11 -28 -2 -26 0 -28 23 -24 16 3 23 1
19 -5 -4 -6 0 -16 8 -23 8 -7 15 -27 16 -44 0 -17 3 -25 6 -18 2 6 9 12 14 12
4 0 6 -7 3 -15 -9 -22 5 -36 25 -26 15 8 17 5 15 -20 -1 -18 3 -32 12 -36 8
-3 14 -9 14 -15 0 -5 7 -16 15 -24 8 -8 11 -22 8 -32 -6 -16 -6 -16 11 0 21
22 26 22 26 2 0 -8 -4 -13 -9 -10 -5 4 -4 -5 2 -18 8 -16 14 -21 19 -13 5 8 8
6 8 -6 0 -10 6 -20 14 -23 8 -3 12 -13 9 -25 -4 -13 0 -19 12 -19 11 0 15 -5
12 -14 -4 -10 -1 -13 7 -10 15 6 40 -21 32 -35 -4 -5 5 -21 18 -34 14 -14 22
-29 18 -33 -4 -5 0 -3 10 4 11 9 18 10 23 2 3 -5 3 -10 -1 -10 -4 0 1 -7 12
-16 10 -8 14 -13 7 -10 -6 4 -14 2 -18 -4 -3 -5 1 -10 9 -10 9 0 15 -4 13 -8
-3 -12 50 -62 68 -62 10 0 15 -10 15 -30 0 -19 5 -30 14 -30 8 0 18 -5 22 -12
5 -7 3 -8 -7 -3 -10 6 -9 3 2 -11 9 -10 14 -25 12 -31 -3 -8 4 -13 17 -13 23
0 50 -21 50 -40 0 -6 4 -8 10 -5 5 3 11 0 11 -7 1 -7 2 -17 4 -23 1 -5 3 -17
3 -25 2 -11 5 -11 14 -2 17 17 29 15 22 -3 -4 -8 1 -17 10 -21 9 -3 16 -15 16
-25 0 -10 5 -19 10 -19 6 0 10 -7 10 -16 0 -11 6 -14 20 -9 14 5 20 2 20 -9 0
-9 4 -16 9 -16 5 0 11 -13 14 -29 4 -17 16 -35 28 -41 14 -8 19 -8 15 -1 -5 7
-1 9 8 5 9 -3 14 -10 11 -14 -3 -4 2 -10 10 -14 8 -3 15 -15 15 -26 0 -21 16
-44 35 -49 6 -2 9 -7 8 -12 -2 -5 9 -9 23 -9 21 0 24 -4 19 -20 -5 -14 -2 -20
9 -20 9 0 16 -5 16 -11 0 -16 27 -40 41 -37 7 2 15 -6 17 -17 2 -11 11 -24 18
-28 8 -5 11 -14 8 -20 -4 -7 -4 -9 1 -5 4 4 14 0 22 -8 9 -8 22 -13 29 -10 9
3 14 -2 14 -15 0 -26 43 -69 70 -69 16 0 21 -5 18 -22 -2 -14 2 -22 10 -21 6
2 12 -2 12 -7 0 -6 9 -19 20 -30 11 -11 20 -16 20 -12 0 5 6 9 14 9 8 0 12 -6
9 -12 -2 -7 3 -15 11 -18 9 -4 13 -13 10 -22 -4 -10 0 -15 11 -15 9 0 14 -4
11 -9 -3 -5 6 -17 20 -26 18 -12 24 -13 19 -4 -3 8 3 3 14 -10 12 -12 18 -27
15 -32 -3 -5 2 -9 11 -9 9 0 13 -5 10 -10 -3 -6 0 -10 9 -10 8 0 16 -4 18 -10
2 -5 15 -11 29 -12 14 -1 26 -8 26 -15 0 -6 -4 -10 -9 -7 -4 3 -8 0 -8 -5 0
-11 15 -15 34 -12 5 1 3 -6 -5 -15 -8 -10 -9 -15 -2 -11 6 4 15 3 18 -3 5 -8
11 -7 21 1 11 9 14 8 14 -5 0 -9 7 -16 15 -16 9 0 12 -6 9 -15 -4 -8 1 -17 10
-21 9 -3 13 -10 10 -15 -3 -5 6 -9 20 -9 17 0 26 -6 26 -16 0 -8 4 -12 10 -9
5 3 15 -5 22 -19 6 -14 18 -26 27 -26 14 0 14 -2 1 -10 -9 -6 -10 -10 -3 -10
6 0 15 5 18 10 4 6 18 -2 35 -20 15 -16 32 -30 37 -30 5 0 9 -10 9 -23 -1 -16
4 -21 17 -19 9 2 17 -2 17 -9 0 -6 7 -8 16 -5 8 3 12 2 9 -4 -3 -6 1 -10 10
-10 9 0 13 -5 10 -10 -4 -6 5 -10 19 -10 15 0 26 -6 26 -13 0 -7 13 -27 29
-45 30 -32 49 -43 35 -20 -6 9 -3 9 9 0 9 -8 21 -11 27 -7 6 3 10 -3 10 -15 0
-29 23 -50 55 -50 14 0 24 -4 21 -9 -3 -5 6 -12 19 -15 14 -4 23 -11 20 -16
-4 -6 -12 -7 -18 -3 -7 4 -6 0 2 -10 7 -9 18 -14 23 -11 5 3 18 -2 30 -13 11
-10 21 -16 22 -13 0 2 12 -3 25 -12 13 -9 20 -21 17 -27 -8 -12 23 -30 41 -24
6 2 23 -8 37 -22 14 -14 31 -23 36 -20 6 3 10 2 10 -4 0 -6 11 -13 24 -17 17
-4 23 -11 21 -25 -3 -14 2 -19 18 -19 12 0 31 -7 41 -15 10 -8 23 -12 29 -8 6
3 7 1 3 -5 -7 -12 5 -16 32 -13 7 1 12 -9 12 -24 0 -22 3 -25 20 -20 14 5 20
2 20 -9 0 -10 9 -16 25 -16 14 0 25 -5 25 -10 0 -6 3 -9 8 -9 20 3 32 -3 32
-17 0 -8 7 -22 15 -30 9 -9 15 -11 15 -4 0 7 11 5 29 -6 17 -10 28 -21 26 -24
-2 -4 11 -6 30 -5 28 0 35 -3 35 -18 0 -17 23 -48 35 -47 3 0 8 -1 13 -1 4 -1
15 0 26 1 11 1 15 -3 12 -9 -5 -7 3 -11 18 -11 21 0 26 -5 26 -24 0 -16 6 -23
18 -23 49 0 58 -3 42 -14 -12 -9 -11 -10 8 -6 15 4 22 0 22 -10 0 -8 7 -13 18
-11 26 4 94 -31 88 -47 -6 -16 18 -27 39 -19 8 3 17 0 20 -8 4 -9 20 -15 38
-16 17 0 33 -6 35 -11 2 -6 13 -11 25 -11 18 0 19 -2 7 -10 -11 -7 -11 -10 -2
-10 7 0 10 -4 7 -10 -4 -6 7 -10 25 -10 17 0 38 -7 47 -15 8 -9 23 -13 33 -10
11 3 20 0 23 -10 4 -9 13 -12 23 -8 11 4 15 2 11 -4 -4 -6 0 -14 9 -17 8 -3
12 -11 9 -17 -5 -7 1 -10 16 -9 39 3 51 1 44 -10 -3 -5 3 -10 14 -10 11 0 23
-4 26 -10 3 -6 18 -10 33 -10 19 0 30 -7 37 -22 6 -13 20 -24 33 -24 12 -1 25
-3 30 -4 4 -1 10 -2 15 -1 4 0 7 -3 7 -9 0 -5 7 -10 16 -10 8 0 13 -4 9 -10
-3 -5 5 -9 17 -8 46 2 68 -2 68 -13 0 -5 -4 -8 -8 -5 -5 3 -9 -1 -9 -8 0 -7
15 -13 36 -15 19 -1 38 -6 41 -11 3 -5 24 -10 47 -11 24 -2 40 -5 38 -8 -9 -8
64 -38 88 -36 15 1 24 -5 27 -19 4 -14 15 -22 35 -24 17 -2 34 -8 40 -13 5 -5
28 -9 52 -9 28 0 43 -4 43 -13 0 -7 11 -12 28 -11 41 1 67 -7 51 -17 -18 -11
-8 -19 29 -23 16 -3 39 -9 50 -15 12 -6 30 -11 41 -11 12 0 21 -4 21 -10 0 -5
20 -10 45 -10 25 0 45 -5 45 -11 0 -5 -4 -7 -10 -4 -6 3 -7 -1 -4 -9 5 -14 47
-23 78 -17 5 1 12 -2 15 -8 4 -6 23 -11 44 -13 20 -1 37 -6 37 -11 0 -4 4 -5
10 -2 5 3 10 2 10 -2 0 -5 15 -8 32 -8 18 0 33 -4 33 -10 1 -25 18 -35 57 -32
22 2 45 -2 52 -8 6 -6 29 -12 50 -13 21 -1 44 -6 50 -12 9 -6 17 -6 26 3 10 9
11 9 6 -1 -5 -8 4 -12 31 -13 73 -2 78 -4 81 -25 3 -18 9 -21 52 -20 31 1 50
-3 50 -10 0 -6 19 -11 43 -12 64 -2 77 -5 77 -14 0 -4 5 -8 11 -8 5 0 8 4 5 8
-3 5 1 9 9 9 8 0 12 -4 9 -9 -3 -4 17 -8 45 -8 27 0 51 -4 53 -9 2 -6 40 -11
86 -12 68 -1 80 -4 71 -15 -13 -16 -23 -19 -14 -4 3 6 1 10 -4 10 -6 0 -11 -7
-11 -16 0 -11 6 -15 20 -11 11 3 20 2 20 -1 0 -4 29 -7 65 -6 36 1 68 -4 72
-9 4 -6 1 -7 -7 -2 -8 5 -11 4 -7 -1 3 -5 38 -9 79 -9 40 1 76 -4 80 -9 4 -6
42 -11 85 -12 100 -3 94 -1 91 -21 -3 -16 9 -18 110 -21 68 -2 110 -6 107 -12
-4 -6 1 -7 11 -3 11 4 15 3 11 -4 -5 -7 0 -9 14 -6 16 4 17 8 7 14 -7 5 -8 9
-3 9 6 0 16 -5 22 -11 6 -6 56 -11 117 -11 70 -1 106 -5 106 -12 0 -6 4 -5 9
2 10 17 20 15 46 -6 16 -14 17 -14 8 -1 -11 13 -9 15 8 14 11 -1 25 -8 30 -16
6 -9 9 -10 9 -2 0 7 7 10 15 7 9 -4 279 -7 600 -8 514 -1 585 1 586 14 0 10 2
11 6 3 2 -7 11 -13 19 -13 9 0 13 4 10 9 -7 10 46 7 64 -4 8 -5 11 -4 7 2 -4
7 29 11 96 12 88 1 142 5 142 11 0 8 43 6 58 -2 14 -7 18 -7 12 2 -5 7 -1 11
11 10 11 -1 56 -2 102 -1 76 1 82 2 73 19 -8 16 -5 18 27 21 20 2 63 4 95 5
31 0 57 5 57 11 0 6 35 10 89 10 65 0 87 3 80 11 -6 8 -1 11 18 12 93 0 114 3
108 12 -3 5 -1 10 4 10 6 0 11 -8 11 -17 1 -17 1 -17 11 0 5 9 7 22 4 27 -4 6
19 10 59 10 37 0 66 4 66 10 0 6 28 10 64 10 36 0 68 5 71 10 4 6 11 8 16 5 5
-4 9 -2 9 2 0 5 17 8 38 7 20 0 40 4 44 10 5 7 8 6 8 -4 0 -12 2 -12 9 -2 4 8
23 14 42 15 19 2 40 6 47 10 6 5 12 4 12 -2 0 -11 26 -9 37 4 4 4 3 5 -3 2 -7
-4 -17 0 -24 8 -15 19 -2 24 55 23 30 -1 39 2 37 13 -3 11 -1 12 9 2 15 -15
43 -17 34 -3 -4 6 13 10 44 10 27 0 53 5 56 10 3 6 21 10 39 10 19 0 39 7 47
17 8 10 9 14 2 10 -6 -4 -14 -4 -17 1 -6 10 1 11 61 15 24 1 43 7 43 13 0 6
19 10 45 10 32 -1 44 3 40 12 -3 8 11 12 48 13 29 1 55 1 58 1 3 -1 6 6 6 14
0 8 -6 13 -14 10 -7 -3 -13 -1 -13 4 0 6 20 10 45 10 29 0 45 4 45 13 0 9 3 8
9 -2 6 -9 10 -10 12 -2 2 6 21 12 42 13 20 1 42 7 48 15 6 7 15 11 19 8 4 -3
13 2 20 10 10 12 10 15 -1 15 -9 0 -7 5 5 11 14 9 20 8 27 -2 6 -10 9 -11 9
-1 0 6 11 12 25 12 14 0 25 5 25 10 0 6 15 10 34 10 19 0 36 5 38 12 3 7 19
11 40 10 20 -1 39 2 43 8 3 5 2 10 -4 10 -6 0 -8 6 -5 13 3 8 17 13 32 12 15
-1 37 4 50 12 12 7 22 11 22 7 0 -4 7 -1 15 6 12 10 15 10 15 0 0 -9 5 -8 18
3 10 10 25 17 33 17 8 0 19 4 25 10 5 5 23 10 40 12 17 1 31 8 31 15 0 6 -5 9
-11 6 -6 -4 -5 0 2 9 7 9 21 14 32 11 11 -3 36 2 55 11 19 10 40 14 45 11 6
-3 13 0 16 9 3 8 11 13 18 10 7 -3 19 2 26 11 12 14 11 18 0 25 -10 6 -5 9 15
9 50 2 64 4 60 10 -2 4 8 11 21 18 13 6 21 7 18 1 -3 -5 12 0 35 11 23 12 41
24 41 27 0 3 -5 2 -10 -1 -6 -3 -10 0 -10 9 0 9 8 13 25 11 17 -1 25 3 25 14
0 14 2 14 10 1 8 -13 11 -13 19 -1 5 7 13 11 19 7 5 -3 15 1 22 9 7 8 29 15
48 15 34 0 35 1 16 16 -10 8 -14 13 -8 10 7 -3 14 0 17 8 3 8 16 12 32 11 16
-2 28 2 32 11 3 8 9 12 13 9 4 -3 10 1 13 9 3 8 18 12 41 11 31 -2 35 -1 24
12 -9 12 -9 16 3 24 8 5 20 9 27 9 6 0 12 4 12 8 0 4 12 9 27 10 14 1 34 8 42
16 9 8 21 15 26 16 6 1 9 6 8 10 -2 5 8 7 21 4 14 -2 29 3 37 13 12 14 12 16
0 9 -9 -6 -12 -4 -9 5 3 8 10 14 16 14 6 0 17 6 23 13 7 6 26 12 42 12 16 0
26 4 22 10 -6 10 13 14 48 11 11 -2 17 5 17 17 0 24 45 56 71 49 11 -3 19 0
19 8 0 7 9 15 20 18 11 3 20 11 20 19 0 10 -3 9 -10 -2 -8 -13 -10 -12 -10 3
0 12 8 17 26 17 14 0 23 4 20 9 -4 5 5 8 18 7 17 -2 26 3 30 17 3 13 10 18 20
14 15 -6 21 9 17 36 0 4 13 7 30 7 17 0 28 4 24 10 -3 6 3 10 14 10 12 0 21 5
21 10 0 6 14 10 31 10 26 0 31 3 26 20 -3 12 0 20 8 20 7 0 18 7 25 15 7 9 15
13 18 10 3 -3 14 3 25 12 15 13 18 14 12 3 -4 -8 3 -5 17 7 13 13 32 23 42 23
14 0 17 5 13 21 -5 17 -3 18 9 8 12 -10 14 -10 12 0 -2 7 6 18 17 24 11 7 25
19 32 27 7 8 13 11 13 6 0 -5 8 -2 17 5 15 12 16 12 8 -1 -6 -12 -6 -13 6 -2
12 11 12 14 -1 22 -11 7 -8 10 13 15 15 4 24 11 21 16 -3 5 6 9 20 9 14 0 26
4 26 9 0 5 10 11 22 14 18 5 19 8 8 21 -10 14 -9 16 9 17 40 3 46 5 43 17 -1
7 7 12 19 12 11 0 17 5 14 10 -6 10 3 13 38 13 9 0 17 4 17 9 0 6 -7 7 -16 4
-10 -4 -13 -2 -8 6 5 8 2 9 -10 5 -11 -4 -15 -3 -11 4 4 6 13 8 21 5 18 -7 45
4 38 15 -3 5 2 9 10 9 9 0 16 4 16 9 0 5 10 11 23 13 12 2 22 10 22 19 0 21
29 49 50 49 9 0 13 4 10 10 -4 6 7 10 25 10 18 0 29 4 25 10 -3 6 2 10 11 10
10 0 14 3 11 6 -4 4 1 20 10 35 13 21 23 28 39 25 18 -4 21 -1 17 11 -4 10 -2
14 5 9 6 -3 13 -2 17 4 4 6 11 7 17 4 6 -4 6 2 -1 15 -12 21 -6 25 37 24 6 -1
12 6 12 15 0 8 3 13 6 9 10 -10 34 20 34 42 0 13 6 21 18 21 23 0 72 43 72 64
0 9 7 16 15 16 8 0 23 9 32 19 9 11 21 17 26 14 6 -3 7 -1 3 5 -3 6 2 15 11
21 16 9 16 12 3 21 -13 8 -13 10 3 10 9 0 17 5 17 10 0 6 5 10 11 10 5 0 7 -4
4 -10 -3 -5 -2 -10 4 -10 6 0 13 11 17 25 3 13 9 24 13 23 20 -2 31 4 31 18 0
8 5 12 11 8 8 -5 8 -1 0 14 -10 18 -9 20 10 17 15 -3 23 2 26 16 5 16 8 18 14
7 7 -10 9 -9 9 5 0 11 8 17 23 17 12 0 17 4 12 8 -13 9 -13 32 0 32 6 0 10 -4
10 -9 0 -5 3 -13 8 -17 4 -4 7 5 7 19 0 24 30 54 42 42 3 -3 4 8 3 25 -2 25 2
30 22 30 12 0 23 4 23 9 0 5 15 18 33 30 17 11 27 21 21 21 -6 0 -11 7 -11 15
0 8 4 15 9 15 4 0 8 -5 8 -10 0 -6 16 5 35 24 19 20 35 40 35 46 0 14 30 45
44 45 6 0 11 3 11 6 0 10 33 39 45 39 6 0 10 10 8 23 -2 17 2 22 20 21 12 -1
22 2 22 7 0 5 10 20 22 35 13 14 23 33 23 42 0 10 9 18 23 20 12 2 20 8 17 13
-4 5 1 9 9 9 10 0 16 9 16 25 0 14 5 25 10 25 6 0 10 6 10 14 0 9 7 12 20 9
14 -4 20 0 20 11 0 11 5 15 13 10 9 -5 9 -4 0 6 -12 13 -7 43 7 35 4 -2 13 7
20 20 7 14 20 24 29 23 8 -2 17 6 19 16 2 11 10 26 18 34 8 7 12 18 8 23 -3 5
-1 8 4 7 6 -2 10 1 10 6 0 5 8 14 17 19 14 8 15 11 4 18 -11 7 -11 9 -1 9 7 0
10 5 7 10 -4 6 5 10 19 10 17 0 26 6 26 16 0 8 5 12 10 9 6 -4 10 -3 9 2 -1 4
-1 20 0 35 1 20 5 26 16 22 11 -5 13 -2 9 10 -5 12 0 16 21 16 15 0 24 4 20
10 -3 6 -2 10 4 10 5 0 8 9 6 20 -2 11 0 20 6 20 5 0 9 7 9 16 0 8 5 12 10 9
6 -3 10 1 10 9 0 9 6 13 14 10 17 -6 25 6 28 40 1 14 8 26 16 26 7 0 10 5 7
10 -3 6 1 10 9 10 9 0 15 3 15 8 -3 18 2 32 12 32 5 0 7 -6 3 -12 -5 -10 -4
-10 6 -1 8 7 15 19 16 28 1 8 12 28 23 44 12 16 21 42 21 58 0 22 2 25 10 13
6 -10 10 -11 10 -3 0 7 6 12 13 10 6 -1 11 4 10 11 -2 6 1 12 6 12 5 0 8 8 7
18 -2 9 6 25 17 34 14 13 16 18 6 19 -8 0 -4 4 9 9 12 5 22 15 22 22 0 9 -3 9
-11 -2 -9 -13 -10 -13 -5 0 3 8 9 23 12 32 3 9 16 18 28 20 11 2 20 9 18 16
-4 23 51 112 70 112 11 0 18 7 18 20 0 11 5 20 10 20 6 0 10 12 10 26 0 14 4
23 9 19 5 -3 11 9 13 27 2 25 9 34 28 39 14 4 21 7 16 8 -5 1 -3 8 4 16 9 11
9 15 1 15 -7 0 0 12 14 27 14 16 25 40 25 55 0 20 6 27 23 30 14 2 21 9 19 19
-1 9 5 19 14 23 10 4 13 13 9 26 -4 12 0 26 9 36 9 8 16 22 16 30 0 8 9 14 20
14 16 0 20 7 20 31 0 17 4 28 10 24 6 -3 10 3 10 14 0 12 6 21 13 21 9 0 8 3
-2 9 -9 6 -9 10 -2 12 6 2 12 16 13 31 1 15 7 26 12 25 5 -1 10 15 10 36 0 31
3 37 22 37 22 0 40 35 23 46 -5 3 -7 10 -3 15 3 5 10 7 15 4 5 -4 9 3 9 13 0
11 6 22 14 25 8 3 12 15 9 30 -4 18 1 28 15 36 11 6 22 8 25 4 4 -3 4 4 2 16
-2 13 2 24 10 28 9 3 13 14 11 29 -3 13 1 27 9 31 7 5 15 22 17 38 2 21 8 30
21 29 13 -1 17 6 17 28 0 17 4 27 10 23 6 -3 10 1 10 10 0 10 -5 13 -12 9 -7
-4 -2 6 10 23 12 17 22 43 22 57 0 14 6 26 13 26 8 0 7 4 -3 10 -13 8 -12 10
5 11 11 1 23 1 26 1 3 0 6 18 8 41 1 23 6 43 12 45 5 2 9 12 9 22 0 10 5 22
10 25 5 3 10 25 11 48 0 23 3 37 6 30 3 -9 9 -10 23 -1 14 9 16 16 9 30 -6 11
-6 18 0 18 5 0 12 7 15 16 4 10 2 13 -7 9 -6 -4 -5 -1 4 7 8 7 15 27 14 46 0
20 4 32 12 32 8 0 13 13 13 35 0 21 5 35 13 35 8 0 7 4 -3 10 -9 6 -10 10 -3
10 6 0 13 17 15 37 2 22 9 38 18 40 13 4 13 3 0 -7 -13 -10 -13 -11 0 -7 8 2
17 17 18 33 2 16 9 32 15 36 8 5 8 8 1 8 -6 0 -11 7 -11 15 0 8 4 12 8 9 4 -2
8 4 8 13 0 34 9 75 17 82 5 3 9 24 9 47 0 34 3 40 20 40 17 -1 20 6 23 47 2
27 7 45 13 42 5 -4 9 -3 8 2 -1 4 -1 31 0 58 1 36 4 46 11 35 11 -17 11 -18
13 62 0 26 4 45 8 42 4 -2 9 -1 12 3 2 5 2 2 1 -4 -2 -7 1 -13 5 -13 14 0 18
21 16 72 -1 26 2 45 7 42 9 -6 9 -5 13 55 2 24 9 47 15 51 9 6 9 9 -1 13 -10
4 -10 6 -1 6 8 1 12 21 12 65 0 36 5 68 10 71 6 3 10 1 10 -5 0 -6 5 -8 10 -5
6 3 10 28 10 55 0 27 5 52 10 55 6 3 10 31 10 61 0 36 4 54 13 54 7 0 8 3 2 8
-16 11 -17 42 -2 42 10 0 13 19 12 80 -1 44 2 80 7 80 5 0 6 4 3 10 -3 5 -1
10 4 10 6 0 11 -5 11 -12 0 -6 3 -8 8 -4 4 4 8 31 9 59 1 29 2 60 2 70 1 10 5
16 10 13 5 -3 9 5 9 19 0 16 -5 22 -12 18 -7 -4 -6 -1 1 8 7 9 13 51 14 97 2
44 6 79 11 76 8 -5 9 11 10 158 1 47 4 65 12 61 6 -4 5 1 -3 10 -12 15 -11 17
5 17 17 0 17 1 -2 16 -10 8 -13 13 -6 9 6 -3 12 0 12 7 0 8 -6 20 -12 27 -8 9
-8 11 -2 8 17 -10 19 6 19 110 0 50 3 89 8 86 5 -3 4 5 -3 17 -11 20 -10 22 5
16 15 -5 16 -4 5 9 -7 8 -9 15 -4 15 5 0 3 4 -5 9 -9 6 -10 11 -2 15 10 6 15
-6 12 -26 -1 -11 17 -10 23 1 4 5 0 12 -6 14 -9 4 -10 8 -2 14 14 11 14 943
-1 943 -6 0 -7 3 0 8 6 4 10 19 10 34 1 20 -2 24 -12 17 -6 -6 -9 -17 -6 -25
3 -8 1 -14 -4 -14 -12 0 -13 3 -17 143 -3 65 -9 124 -14 130 -5 7 -10 55 -10
107 0 58 -5 96 -11 98 -7 2 -11 34 -11 78 0 58 -3 73 -12 68 -9 -5 -9 -3 1 9
11 14 11 18 -1 22 -10 4 -13 24 -11 77 2 74 -10 107 -31 89 -9 -8 -12 6 -11
51 1 36 -4 62 -10 64 -7 3 -12 30 -12 65 0 33 -4 63 -8 67 -5 4 -5 1 0 -7 6
-10 4 -12 -4 -7 -9 6 -9 11 1 24 10 12 10 14 1 8 -8 -4 -13 -1 -13 9 0 10 5
13 13 9 9 -6 9 -5 0 7 -6 8 -13 35 -14 60 -2 27 -7 46 -14 46 -6 0 -12 -6 -12
-13 0 -7 5 -10 10 -7 6 3 7 1 3 -5 -17 -27 -26 -8 -26 54 0 41 -4 63 -10 59
-9 -6 -12 11 -12 88 -1 15 -6 27 -12 27 -7 0 -7 3 -1 8 15 11 17 32 3 29 -9
-1 -13 12 -12 41 0 23 -3 42 -8 42 -4 0 -7 5 -5 11 1 6 -5 14 -13 16 -12 4
-12 3 -1 -5 8 -6 9 -12 3 -16 -14 -8 -22 18 -22 69 0 24 -4 47 -10 50 -5 3
-10 26 -10 51 0 24 -4 44 -8 44 -4 0 -9 15 -11 33 -6 67 -7 77 -15 84 -4 5 -6
2 -4 -6 2 -7 -4 -15 -12 -16 -13 -2 -15 7 -14 47 0 27 -4 52 -9 55 -6 4 -7 1
-2 -8 5 -8 4 -11 0 -6 -5 4 -10 35 -12 70 -2 34 -8 64 -14 65 -5 2 -9 24 -9
48 0 43 -7 53 -26 35 -5 -6 -10 5 -12 32 -1 23 -7 44 -13 48 -6 3 -10 25 -11
47 0 23 -4 39 -9 36 -5 -3 -4 7 1 22 9 22 8 25 -5 21 -11 -5 -14 0 -11 16 1
12 -4 28 -13 35 -9 7 -11 12 -6 11 22 -3 29 2 15 11 -8 5 -15 26 -16 52 -1 36
-5 44 -23 46 -16 3 -21 11 -22 35 -1 18 -1 36 0 40 1 5 -3 6 -9 2 -8 -5 -16
38 -11 68 0 4 -6 7 -15 7 -13 0 -14 3 -5 14 8 9 8 16 2 20 -6 4 -7 14 -4 23 5
12 2 15 -10 10 -24 -9 -43 29 -25 51 11 13 11 14 0 8 -10 -6 -13 -3 -12 10 4
35 0 45 -12 38 -8 -5 -7 0 2 11 8 10 10 16 4 12 -7 -4 -11 5 -12 25 0 17 -6
34 -13 38 -8 6 -8 9 2 13 10 4 10 6 2 6 -8 1 -13 16 -13 39 0 27 -3 33 -10 22
-7 -11 -10 -11 -10 -2 0 7 -4 10 -10 7 -6 -4 -10 8 -10 27 0 19 -4 38 -10 44
-5 5 -11 23 -12 39 -1 17 -6 36 -12 44 -9 12 -8 13 4 7 13 -6 13 -6 0 6 -9 7
-16 21 -17 31 -3 57 -5 71 -10 60 -10 -26 -29 -12 -31 23 -2 20 -8 46 -14 57
-6 12 -11 33 -10 48 0 15 -5 30 -12 32 -7 3 -12 20 -11 40 0 20 -3 34 -6 31
-4 -2 -10 0 -14 6 -4 6 -10 8 -14 6 -4 -3 -8 10 -9 27 -2 17 -7 34 -13 38 -6
3 -10 15 -9 25 4 33 0 45 -10 39 -6 -4 -10 12 -10 39 0 25 -4 46 -10 46 -5 0
-10 16 -10 36 0 25 -3 33 -12 28 -8 -5 -8 -2 1 10 8 9 10 16 5 15 -32 -6 -41
2 -38 31 2 19 -1 30 -9 30 -7 0 -12 14 -12 38 0 20 -6 45 -13 54 -8 9 -11 22
-7 27 3 6 1 11 -5 11 -6 0 -9 4 -5 9 3 5 0 13 -6 17 -7 4 -9 3 -6 -3 4 -6 1
-13 -6 -16 -9 -3 -14 7 -16 36 -1 23 -8 45 -15 49 -7 4 -11 22 -10 42 2 24 -1
36 -10 36 -9 0 -12 14 -11 45 1 29 -2 42 -8 36 -12 -12 -39 12 -36 31 3 29 -2
49 -11 43 -6 -4 -10 7 -10 25 0 18 -4 29 -10 25 -5 -3 -10 0 -10 9 0 8 6 17
13 19 10 4 10 6 0 6 -7 1 -13 10 -13 21 0 18 -10 25 -32 21 -8 -1 -9 5 -12 59
0 14 -6 28 -12 32 -7 4 -10 21 -9 37 1 18 -2 29 -9 28 -6 -1 -10 8 -9 21 2 12
-1 22 -7 22 -5 0 -7 9 -5 20 2 11 0 18 -5 15 -11 -7 -42 24 -35 35 3 5 1 10
-4 12 -6 1 -11 22 -12 45 -2 32 -6 40 -15 32 -9 -8 -11 -5 -7 9 2 11 -1 30 -7
42 -8 15 -8 20 -1 16 16 -10 13 3 -4 21 -8 8 -13 19 -10 24 5 8 -15 13 -37 10
-4 0 -6 13 -6 30 1 17 -3 34 -8 37 -11 8 -15 26 -16 64 -1 15 -5 25 -10 22 -7
-4 -13 52 -9 79 0 4 -4 7 -9 7 -6 0 -10 -4 -10 -10 0 -5 -5 -10 -11 -10 -5 0
-7 5 -4 10 3 6 2 10 -4 10 -5 0 -8 13 -6 29 3 20 -1 31 -12 35 -8 3 -13 13
-10 20 3 8 1 16 -4 18 -6 2 -13 21 -16 43 -6 45 -17 63 -28 44 -6 -8 -4 -10 5
-4 9 6 11 4 6 -4 -9 -13 -19 -8 -22 12 -1 7 -3 23 -5 37 -2 14 -8 28 -13 31
-5 4 -9 20 -10 37 0 16 -6 28 -11 26 -6 -3 -10 10 -10 28 0 28 -3 33 -22 32
-20 -1 -23 3 -23 38 0 24 -4 37 -10 33 -6 -4 -10 8 -10 29 0 20 -4 36 -10 36
-5 0 -10 9 -10 20 0 18 -10 25 -32 21 -5 0 -8 17 -8 38 0 23 -5 41 -12 44 -7
2 -14 13 -14 25 -1 12 -2 31 -3 43 0 11 -6 17 -12 14 -6 -4 -10 -1 -8 6 3 25
-1 40 -9 35 -5 -3 -9 1 -9 9 0 8 4 12 9 9 4 -3 8 0 8 5 0 6 -4 11 -9 11 -5 0
-11 10 -13 23 -2 15 -9 21 -20 19 -14 -2 -18 4 -18 26 0 15 -5 33 -10 38 -6 6
-12 24 -14 40 -1 16 -7 28 -13 27 -6 -1 -10 6 -10 15 0 61 -4 73 -20 70 -11
-2 -19 5 -21 17 -3 11 -8 22 -13 25 -5 3 -9 20 -11 38 -1 18 -6 32 -10 32 -4
0 -8 9 -8 20 0 19 -9 24 -40 21 -13 -2 -13 -1 0 8 12 9 13 11 1 11 -8 0 -11 3
-8 6 4 4 13 1 21 -5 10 -8 16 -9 21 -1 6 9 -1 14 -17 11 -4 0 -12 8 -18 19 -6
11 -7 20 -3 20 4 0 -1 6 -12 14 -12 8 -16 20 -12 35 3 13 -1 24 -10 30 -11 6
-14 18 -11 40 4 28 2 32 -14 28 -18 -5 -43 24 -31 37 3 3 0 6 -9 6 -10 0 -14
9 -12 35 2 19 -1 35 -7 35 -6 0 -7 5 -4 10 3 6 1 10 -4 10 -6 0 -10 3 -10 8 5
32 -3 52 -21 52 -15 0 -20 7 -20 26 0 14 -4 23 -10 19 -6 -4 -10 8 -10 29 0
20 -4 36 -10 36 -5 0 -10 14 -10 30 0 17 -6 33 -14 36 -8 3 -12 13 -9 24 4 13
-1 19 -18 22 -18 2 -23 10 -25 37 -2 19 -7 37 -12 40 -6 3 -12 20 -13 36 -2
17 -9 36 -16 43 -7 7 -10 19 -7 26 4 9 -2 13 -20 11 -21 -3 -24 0 -20 22 3 15
-2 33 -10 42 -9 10 -14 27 -11 39 3 16 -1 22 -13 22 -15 0 -15 2 -2 10 10 6
11 10 3 10 -7 0 -13 6 -13 14 0 7 -9 16 -20 19 -11 3 -20 9 -19 14 4 25 -2 53
-11 48 -6 -4 -10 -3 -9 2 1 4 1 26 0 48 -1 30 -4 36 -11 25 -10 -16 -13 -10
-13 33 0 11 -7 17 -21 17 -17 0 -22 7 -24 32 -2 18 -6 35 -11 38 -4 3 -7 17
-7 33 1 15 -2 27 -6 27 -5 0 -13 11 -18 25 -6 16 -14 23 -25 19 -15 -6 -19 3
-15 44 1 13 -4 22 -13 22 -9 0 -14 9 -13 23 1 12 -2 31 -8 42 -10 20 -13 27
-15 46 0 5 -5 8 -9 5 -5 -3 -9 1 -9 9 0 8 4 12 8 9 8 -4 -6 25 -25 55 -7 11
-10 11 -17 0 -6 -10 -9 -3 -9 19 0 19 -4 31 -10 27 -6 -3 -7 1 -4 9 3 9 1 16
-5 16 -6 0 -8 7 -4 16 3 9 0 20 -7 24 -7 4 -13 21 -13 37 -1 23 -6 30 -22 29
-12 -1 -21 6 -23 19 -2 11 -6 27 -10 35 -6 16 -9 28 -11 48 0 7 -5 10 -11 7
-6 -4 -10 8 -10 29 0 29 -4 36 -20 36 -20 0 -22 5 -23 48 0 13 -6 22 -15 22
-9 0 -13 7 -9 20 3 12 0 20 -7 20 -7 0 -13 13 -14 30 -1 41 -10 54 -28 39 -12
-9 -14 -6 -14 19 0 17 -5 34 -10 37 -6 4 -8 10 -5 14 2 5 -4 18 -14 30 -11 12
-18 33 -16 50 2 28 -7 34 -32 18 -8 -5 -11 -1 -8 12 2 11 -3 25 -11 32 -12 9
-12 15 -2 27 10 13 10 14 1 8 -9 -5 -13 1 -13 19 0 15 -4 24 -10 20 -6 -4 -10
8 -10 30 0 20 -7 43 -15 52 -8 8 -12 19 -9 25 4 6 2 8 -4 4 -16 -9 -44 24 -39
46 3 11 -1 22 -9 25 -8 3 -14 18 -14 33 0 16 -5 30 -10 32 -6 2 -12 14 -13 26
-1 21 -3 21 -13 7 -15 -21 -27 -4 -26 37 0 15 -4 26 -9 23 -5 -4 -9 3 -9 14 0
12 -5 21 -11 21 -6 0 -9 9 -6 19 3 11 -2 30 -11 42 -12 18 -12 21 -1 14 11 -7
12 -5 1 6 -11 12 -14 12 -21 0 -7 -11 -10 -9 -16 8 -3 11 -4 25 -1 29 3 5 -1
18 -9 28 -8 10 -15 27 -15 37 0 10 -4 15 -10 12 -6 -4 -10 7 -10 25 0 18 -4
29 -10 25 -6 -3 -7 1 -4 9 3 9 1 16 -5 16 -6 0 -11 -5 -11 -11 0 -5 -4 -8 -9
-5 -5 4 -8 14 -7 24 2 9 -4 20 -13 24 -13 6 -13 7 3 7 17 1 16 4 -8 26 -14 13
-26 35 -26 48 0 12 -6 29 -12 36 -10 11 -10 13 0 7 6 -4 12 -2 12 3 0 14 -13
14 -28 -1 -9 -9 -12 -6 -12 16 0 19 -4 25 -12 20 -9 -5 -8 -2 1 9 12 15 11 20
-9 37 -13 11 -20 20 -16 20 4 0 2 9 -4 20 -8 15 -8 20 2 20 10 0 10 2 0 9 -8
4 -14 12 -15 17 -1 5 -6 8 -10 6 -4 -1 -7 3 -6 10 1 7 1 22 0 33 -1 15 -3 17
-10 6 -13 -20 -31 -4 -31 28 0 15 -4 31 -9 37 -5 5 -11 20 -13 34 -4 29 -21
50 -41 50 -18 0 -30 27 -16 36 7 4 3 14 -10 28 -11 12 -21 36 -23 53 -1 17 -6
29 -10 27 -4 -3 -8 4 -8 14 0 11 -8 26 -17 33 -11 10 -14 10 -9 2 4 -7 2 -13
-3 -13 -9 0 -17 46 -12 73 1 5 -3 6 -9 2 -9 -5 -15 15 -11 38 2 12 -17 8 -23
-5 -3 -7 -3 2 0 20 3 23 0 34 -11 38 -8 3 -12 11 -8 18 4 6 -1 5 -10 -3 -15
-12 -17 -11 -17 12 0 14 -5 29 -11 33 -8 4 -7 9 2 15 10 6 11 9 2 9 -7 0 -13
6 -13 14 0 8 -6 16 -13 19 -8 3 -12 18 -11 35 1 23 -2 29 -15 25 -18 -5 -51
56 -51 95 0 11 -4 24 -10 27 -5 3 -10 17 -10 31 0 13 -4 24 -10 24 -5 0 -10 9
-10 20 0 14 -7 20 -23 20 -19 0 -23 5 -21 30 1 16 -4 34 -12 41 -8 6 -11 15
-8 20 3 5 -2 9 -11 9 -9 0 -15 6 -14 13 1 6 1 24 0 39 -1 21 -5 25 -21 21 -20
-5 -22 -1 -23 44 0 12 -4 20 -8 17 -8 -5 -14 19 -10 40 1 5 -4 5 -11 -1 -10
-9 -13 -3 -12 31 1 39 -1 43 -23 40 -20 -2 -23 2 -23 32 0 19 -4 34 -10 34 -5
0 -10 7 -10 15 0 8 -4 15 -10 15 -5 0 -10 10 -10 21 0 16 -5 20 -20 16 -20 -5
-21 -2 -23 41 -1 9 -7 20 -13 25 -7 4 -11 23 -9 44 2 23 0 31 -5 23 -6 -10
-10 -7 -15 12 -4 15 -3 33 1 40 6 11 5 11 -8 0 -15 -12 -17 -9 -20 20 -2 24
-8 33 -20 32 -19 -2 -21 5 -18 44 1 14 -4 22 -14 22 -9 0 -13 7 -11 20 2 12
-2 20 -9 20 -8 0 -13 12 -12 33 0 27 -3 32 -22 31 -17 -1 -22 4 -22 22 0 13
-4 24 -10 24 -5 0 -10 11 -10 25 0 14 -4 25 -10 25 -5 0 -10 11 -10 24 0 19
-4 22 -24 19 -21 -4 -23 -2 -19 21 3 15 -1 31 -10 41 -9 8 -14 24 -12 34 2 11
-3 22 -12 25 -9 4 -13 9 -10 13 11 11 -13 42 -28 37 -11 -5 -15 1 -15 24 0 16
-6 32 -13 35 -8 3 -12 18 -11 36 1 22 -2 31 -13 31 -10 0 -14 6 -10 20 4 14 0
20 -13 20 -10 0 -23 7 -30 15 -10 12 -10 15 0 15 9 0 8 7 -4 25 -9 13 -16 31
-16 40 0 8 -4 15 -10 15 -5 0 -10 17 -10 38 0 27 -3 33 -10 22 -10 -15 -11
-13 -14 24 0 11 -7 20 -14 22 -7 1 -8 0 -2 -3 17 -8 11 -21 -8 -16 -12 3 -18
13 -17 26 1 12 -4 31 -11 42 -8 11 -14 32 -14 48 0 15 -4 26 -9 23 -5 -3 -11
3 -14 14 -3 11 -12 20 -21 20 -9 0 -17 5 -17 10 -1 6 -2 18 -4 28 -3 28 -16
52 -29 52 -6 0 -13 11 -14 26 -1 17 2 23 11 18 9 -5 9 -4 1 5 -6 7 -20 14 -30
15 -12 2 -20 12 -22 30 -2 14 -8 24 -13 21 -5 -4 -9 7 -9 24 0 16 -5 31 -10
33 -6 2 -12 17 -13 33 -2 22 -7 30 -22 30 -13 0 -21 8 -23 23 -2 12 -7 22 -12
22 -5 0 -7 9 -5 20 2 11 -3 26 -11 34 -8 8 -14 26 -14 40 0 23 -9 31 -32 27
-5 0 -8 6 -8 14 0 7 -8 19 -17 24 -10 6 -14 11 -9 11 4 0 0 12 -9 27 -14 21
-15 25 -3 20 13 -4 13 -1 4 19 -6 13 -16 22 -22 20 -6 -3 -11 9 -12 26 -1 30
-18 52 -34 42 -4 -3 -8 4 -8 15 0 12 -4 21 -10 21 -5 0 -10 16 -10 35 0 22 -4
34 -12 32 -7 -1 -12 3 -13 8 0 6 -4 16 -9 24 -6 10 -5 12 2 7 7 -4 12 -2 12 3
0 6 -5 11 -11 11 -5 0 -7 5 -4 10 4 6 3 10 -2 9 -23 -4 -33 3 -33 24 0 18 -2
19 -10 7 -7 -11 -10 -7 -10 18 0 17 -4 32 -10 32 -5 0 -9 3 -9 8 5 28 -3 40
-21 35 -11 -3 -21 0 -21 6 -3 20 -4 26 -18 68 -8 23 -18 40 -23 37 -5 -3 -7 6
-4 20 4 22 1 26 -20 26 -19 0 -24 5 -24 26 0 15 -4 23 -10 19 -6 -4 -10 -3 -9
2 5 26 -2 63 -11 58 -9 -6 -15 22 -11 53 1 7 -9 12 -25 12 -18 0 -25 4 -21 14
3 8 -1 20 -9 27 -9 7 -13 21 -11 31 3 11 0 18 -9 18 -8 0 -14 9 -14 19 0 11
-6 21 -12 23 -7 3 -11 18 -10 37 2 21 -2 31 -10 30 -26 -3 -39 1 -33 12 4 5
-1 20 -12 31 -13 15 -14 22 -6 25 9 3 6 11 -7 26 -11 11 -20 28 -20 36 0 14
-1 14 -10 1 -6 -9 -10 -10 -10 -3 0 7 7 16 16 21 14 8 13 10 -5 15 -12 3 -19
1 -16 -3 3 -5 1 -12 -5 -15 -6 -4 -10 -3 -9 2 5 26 -2 63 -11 58 -6 -4 -10 5
-10 19 0 14 -5 26 -11 26 -5 0 -7 5 -4 10 3 6 1 10 -5 10 -6 0 -9 4 -6 9 6 10
-22 24 -33 17 -4 -3 -7 10 -6 29 1 21 -3 36 -11 39 -8 3 -14 15 -14 26 0 11
-4 20 -10 20 -5 0 -10 9 -10 20 0 12 -7 20 -17 20 -10 0 -23 11 -30 25 -6 14
-8 23 -4 21 4 -3 7 4 7 14 0 12 -4 16 -11 10 -7 -6 -11 -2 -12 12 -1 12 -7 24
-14 28 -6 4 -9 12 -6 16 2 5 1 20 -4 33 -8 19 -12 21 -24 11 -12 -10 -15 -9
-16 6 -1 11 -1 25 0 33 2 7 -2 10 -8 6 -7 -4 -11 4 -11 19 0 14 -6 26 -12 26
-9 0 -8 4 2 10 13 8 12 10 -3 10 -10 0 -16 4 -12 9 3 5 1 13 -5 16 -8 5 -7 11
1 21 9 11 8 14 -6 14 -10 0 -16 3 -12 6 9 10 -16 32 -30 27 -8 -3 -13 3 -13
16 0 12 -4 21 -10 21 -5 0 -10 16 -10 36 0 21 -4 33 -10 29 -5 -3 -10 1 -10
10 0 11 -5 15 -15 11 -8 -3 -14 0 -12 7 1 7 -3 11 -9 10 -6 -1 -10 9 -8 22 1
14 -3 25 -10 25 -6 0 -13 15 -14 33 -2 17 -7 34 -12 35 -6 2 -10 12 -10 23 0
12 -7 19 -20 19 -19 0 -26 20 -20 60 1 8 -1 12 -6 8 -13 -13 -36 13 -24 27 8
10 8 15 -1 21 -8 5 -9 3 -4 -6 5 -8 4 -11 -3 -7 -5 4 -8 15 -5 25 2 10 -3 25
-13 33 -11 9 -15 9 -10 2 4 -7 3 -13 -3 -13 -13 0 -41 58 -41 86 0 12 -5 24
-11 26 -6 2 -12 16 -12 31 -2 21 -6 26 -21 21 -12 -4 -16 -2 -12 5 4 6 2 11
-4 11 -6 0 -8 5 -5 10 3 6 -2 10 -12 10 -15 0 -16 2 -3 10 12 8 12 10 1 10 -8
0 -11 7 -8 20 3 13 0 20 -9 20 -8 0 -14 9 -14 20 0 11 -4 20 -10 20 -5 0 -10
13 -10 29 0 29 -25 50 -34 28 -2 -7 -5 -2 -5 10 -1 12 -5 23 -10 25 -6 2 -11
16 -13 31 -3 16 -10 32 -17 36 -6 4 -11 14 -9 22 2 8 -7 15 -19 17 -20 3 -27
18 -22 48 1 3 -12 19 -28 36 -17 18 -21 27 -11 23 15 -6 16 -4 5 19 -8 17 -20
26 -36 26 -20 0 -23 4 -18 26 3 16 0 28 -9 31 -8 3 -14 10 -13 17 3 24 -1 37
-11 31 -6 -4 -10 8 -10 29 0 36 -12 47 -27 24 -5 -9 -10 -3 -13 17 -4 17 -11
29 -18 27 -7 -1 -12 5 -12 13 0 8 5 15 11 15 6 0 4 7 -5 15 -8 8 -18 24 -21
35 -4 11 -11 18 -16 15 -5 -4 -9 -1 -9 5 0 6 -4 8 -10 5 -6 -4 -10 5 -10 19 0
14 -5 26 -11 26 -5 0 -8 4 -4 9 3 5 -1 16 -9 24 -8 8 -12 17 -9 21 4 3 1 6 -6
6 -7 0 -9 5 -6 10 4 6 2 17 -4 24 -9 11 -17 39 -20 69 -1 4 -4 6 -8 6 -20 -3
-34 2 -28 11 3 6 -2 10 -12 10 -15 0 -16 2 -3 10 10 6 11 10 3 10 -7 0 -13 11
-13 25 0 14 -4 25 -10 25 -5 0 -10 10 -10 21 0 16 -5 20 -20 16 -19 -5 -24 8
-19 49 0 3 -9 14 -21 24 -13 11 -19 24 -14 31 4 8 3 9 -4 5 -8 -5 -12 2 -12
18 0 19 -5 26 -20 26 -13 0 -20 7 -20 20 0 11 -7 23 -15 26 -12 5 -13 10 -4
20 9 11 8 14 -1 14 -7 0 -10 7 -6 15 3 9 0 15 -10 15 -8 0 -12 5 -9 10 3 6 -1
10 -9 10 -9 0 -16 6 -16 13 0 8 -3 7 -10 -3 -7 -12 -9 -10 -7 7 0 12 6 19 11
15 6 -3 1 7 -12 22 -12 16 -22 39 -22 52 0 13 -4 24 -10 24 -5 0 -10 6 -10 14
0 7 -8 20 -17 27 -15 12 -16 12 -10 -6 7 -19 6 -19 -7 -2 -8 10 -13 26 -12 35
2 9 -3 23 -11 30 -7 8 -11 17 -8 22 3 4 -2 10 -10 14 -9 3 -15 18 -15 36 0 18
-4 29 -10 25 -5 -3 -10 1 -10 9 0 9 -5 16 -11 16 -5 0 -7 6 -3 13 5 8 2 8 -9
-2 -15 -12 -17 -11 -18 5 -1 11 -1 25 0 32 1 6 -3 12 -9 12 -6 0 -8 5 -5 10 3
6 1 10 -5 10 -6 0 -9 4 -5 9 3 6 0 13 -8 18 -7 4 -13 16 -14 26 -1 33 -3 38
-12 33 -17 -11 -51 31 -51 63 0 19 -4 30 -10 26 -9 -6 -15 21 -11 52 1 6 -9
13 -21 15 -13 2 -22 9 -20 17 2 8 -3 11 -12 8 -10 -4 -13 -1 -9 10 3 8 0 19
-8 24 -14 8 -15 12 -18 49 -1 13 -8 20 -21 20 -13 0 -20 7 -20 20 0 11 -6 20
-12 20 -9 0 -8 4 2 10 14 9 6 15 -15 10 -5 -1 -7 2 -2 6 4 4 -1 16 -10 27 -13
15 -14 18 -3 12 12 -6 13 -5 3 6 -7 7 -13 21 -13 30 0 12 -6 17 -20 14 -14 -3
-20 2 -20 16 0 10 -4 19 -10 19 -5 0 -10 11 -10 24 0 13 -6 27 -12 29 -10 4
-10 6 0 6 10 1 10 5 -2 17 -9 8 -13 21 -9 27 4 7 -1 6 -10 -2 -21 -17 -22 -8
-1 13 8 9 11 16 5 16 -6 0 -11 7 -11 15 0 8 -3 14 -7 14 -33 -5 -59 21 -54 55
1 5 -4 16 -12 25 -8 9 -17 24 -21 35 -5 13 -10 15 -19 8 -12 -10 -16 0 -20 55
0 7 -5 11 -11 10 -6 -1 -10 4 -9 11 2 6 -4 12 -13 12 -14 0 -14 3 -4 15 7 9 8
15 2 15 -5 0 -9 8 -8 17 0 10 -5 18 -11 19 -7 1 -17 2 -23 3 -5 0 -10 8 -10
17 0 8 -4 12 -10 9 -5 -3 -10 -2 -10 4 0 5 6 12 13 14 10 4 10 6 0 6 -7 1 -13
10 -13 20 0 10 -6 21 -14 24 -9 3 -12 15 -9 31 5 23 2 26 -21 26 -16 0 -25 4
-21 10 3 6 1 10 -5 10 -6 0 -8 5 -5 10 3 6 1 10 -4 10 -6 0 -11 7 -11 16 0 8
-4 13 -9 10 -4 -3 -8 2 -8 12 0 48 -3 54 -23 49 -20 -5 -22 -3 -24 35 0 12 -6
23 -13 25 -7 3 -9 11 -6 19 3 9 -1 14 -11 14 -9 0 -16 6 -15 13 4 33 -2 58
-13 51 -8 -5 -9 0 -6 14 5 18 2 22 -18 22 -19 0 -24 5 -24 25 0 14 -4 25 -10
25 -5 0 -10 9 -10 20 0 11 -4 20 -10 20 -5 0 -10 12 -10 26 0 17 -4 23 -12 18
-7 -5 -9 -2 -5 8 4 12 1 14 -14 11 -15 -4 -18 -2 -13 11 4 11 1 16 -11 16 -12
0 -16 6 -12 20 3 11 -1 27 -9 34 -8 8 -14 21 -14 29 0 23 -12 28 -27 9 -8 -9
-12 -11 -8 -4 3 6 2 12 -4 12 -5 0 -8 9 -6 20 5 26 -8 33 -31 15z m1586 -2646
c0 -5 5 -7 12 -3 7 4 8 3 4 -5 -6 -9 -11 -9 -22 0 -17 14 -18 19 -4 19 6 0 10
-5 10 -11z m-3335 -370 c11 -16 1 -19 -13 -3 -7 8 -8 14 -3 14 5 0 13 -5 16
-11z m-1273 -2261 c-16 -16 -15 -31 1 -22 6 4 8 3 4 -1 -9 -10 -37 -16 -37 -7
0 7 32 42 39 42 3 0 0 -5 -7 -12z m6543 -838 c3 -6 -1 -7 -9 -4 -18 7 -21 14
-7 14 6 0 13 -4 16 -10z m-7368 -714 c0 -8 -6 -12 -15 -9 -11 5 -11 7 0 14 7
5 13 9 14 9 0 0 1 -6 1 -14z m10460 -5453 c0 -9 -4 -10 -14 -2 -7 6 -13 12
-13 14 0 1 6 2 13 2 8 0 14 -6 14 -14z m908 -2092 c3 -5 1 -12 -4 -15 -5 -3
-11 1 -15 9 -6 16 9 21 19 6z m450 -1191 c3 -6 -1 -7 -9 -4 -18 7 -21 14 -7
14 6 0 13 -4 16 -10z m352 -1002 c-3 -8 -6 -5 -6 6 -1 11 2 17 5 13 3 -3 4
-12 1 -19z m558 -2547 c3 -5 2 -12 -3 -15 -5 -3 -9 1 -9 9 0 17 3 19 12 6z
m-17715 -627 c0 -8 -19 -13 -24 -6 -3 5 1 9 9 9 8 0 15 -2 15 -3z m1267 -4338
c-5 -15 -24 -18 -24 -3 0 8 6 14 14 14 7 0 12 -5 10 -11z m14900 -452 c0 -7
-6 -10 -14 -7 -7 3 -13 8 -13 12 0 4 6 8 13 8 8 0 14 -6 14 -13z m-582 -733
c3 -5 2 -12 -3 -15 -5 -3 -9 1 -9 9 0 17 3 19 12 6z m-2148 -1826 c0 -8 -4
-12 -9 -9 -5 3 -6 10 -3 15 9 13 12 11 12 -6z m-7077 -889 c0 -3 -4 -8 -10
-11 -5 -3 -10 -1 -10 4 0 6 5 11 10 11 6 0 10 -2 10 -4z m-35 -16 c-3 -5 -1
-10 6 -10 7 0 10 -3 6 -6 -9 -9 -28 6 -22 17 4 5 8 9 11 9 3 0 2 -4 -1 -10z"/>
<path d="M20930 32831 c0 -6 5 -13 10 -16 6 -3 10 1 10 9 0 9 -4 16 -10 16 -5
0 -10 -4 -10 -9z"/>
<path d="M12750 26380 c0 -5 5 -10 11 -10 5 0 7 5 4 10 -3 6 -8 10 -11 10 -2
0 -4 -4 -4 -10z"/>
<path d="M24847 25277 c-3 -8 0 -14 7 -14 7 0 13 6 13 14 0 7 -4 13 -8 13 -4
0 -9 -6 -12 -13z"/>
<path d="M25016 24903 c-6 -14 -5 -15 5 -6 7 7 10 15 7 18 -3 3 -9 -2 -12 -12z"/>
<path d="M25580 23631 c0 -10 19 -25 25 -20 1 2 -3 10 -11 17 -8 7 -14 8 -14
3z"/>
<path d="M11204 23008 c-4 -5 -3 -12 0 -15 3 -4 6 -1 6 6 0 7 4 10 9 6 5 -3
12 -2 15 3 3 5 -2 9 -10 9 -8 0 -17 -4 -20 -9z"/>
<path d="M10477 21113 c-12 -11 -8 -30 7 -30 7 0 13 6 12 13 -3 18 -11 25 -19
17z"/>
<path d="M9935 19371 c-3 -5 -2 -12 3 -15 5 -3 9 1 9 9 0 17 -3 19 -12 6z"/>
<path d="M27395 17910 c-3 -5 -1 -10 4 -10 6 0 11 5 11 10 0 6 -2 10 -4 10 -3
0 -8 -4 -11 -10z"/>
<path d="M9643 17078 c-2 -18 0 -20 7 -8 12 18 13 30 2 30 -4 0 -9 -10 -9 -22z"/>
<path d="M11576 11892 c-3 -5 1 -9 9 -9 8 0 12 4 9 9 -3 4 -7 8 -9 8 -2 0 -6
-4 -9 -8z"/>
<path d="M24770 11089 c0 -5 5 -7 10 -4 6 3 10 8 10 11 0 2 -4 4 -10 4 -5 0
-10 -5 -10 -11z"/>
<path d="M10675 8940 c-10 -11 -26 -22 -36 -25 -10 -4 -18 -12 -16 -18 1 -7
-3 -11 -10 -10 -7 2 -10 -6 -8 -17 2 -11 0 -20 -6 -20 -5 0 -9 -9 -9 -21 0
-11 -4 -18 -8 -15 -4 2 -8 -4 -8 -15 0 -10 4 -19 9 -19 4 0 5 -6 0 -12 -11
-18 -12 -118 -1 -118 5 0 6 -6 1 -12 -12 -20 -9 -42 7 -56 8 -8 10 -11 3 -8
-6 4 -14 2 -18 -4 -3 -5 0 -10 7 -10 9 0 13 -10 12 -30 -1 -17 3 -30 9 -30 7
0 5 -5 -3 -10 -11 -7 -11 -10 -2 -10 7 0 10 -4 7 -10 -3 -5 -2 -10 2 -10 5 0
9 -10 10 -22 3 -57 9 -86 16 -81 5 3 8 -3 7 -13 -4 -33 0 -55 8 -50 7 4 12
-17 15 -61 0 -7 4 -13 9 -13 5 0 6 -4 3 -10 -3 -5 -2 -10 3 -10 5 0 8 -10 8
-22 -1 -13 2 -29 8 -36 6 -8 11 -23 13 -35 2 -11 8 -26 13 -32 5 -6 8 -22 5
-34 -3 -18 -1 -20 9 -12 11 9 13 5 10 -19 -3 -23 0 -30 14 -31 10 0 12 -3 5
-6 -7 -2 -13 -9 -13 -14 0 -6 5 -7 10 -4 6 4 10 -7 10 -24 0 -17 5 -31 10 -31
6 0 10 -12 10 -26 0 -17 4 -23 13 -18 7 5 7 2 -2 -10 -12 -15 -12 -17 0 -14 8
2 13 -3 11 -11 -2 -8 2 -17 8 -21 6 -4 12 -20 13 -37 1 -17 4 -30 7 -28 3 2
10 -8 17 -21 6 -13 7 -22 2 -18 -5 3 -9 0 -9 -5 0 -6 6 -11 14 -11 9 0 12 -7
9 -20 -3 -12 0 -20 6 -20 7 0 9 -4 6 -10 -3 -5 -1 -10 4 -10 6 0 11 -10 11
-23 0 -26 21 -77 33 -77 4 0 7 -8 7 -18 0 -10 6 -24 13 -31 10 -11 9 -12 -3
-6 -13 8 -13 7 0 -9 8 -10 15 -25 16 -34 2 -8 8 -18 14 -22 6 -4 11 -13 10
-21 -4 -25 0 -40 8 -35 4 2 9 -7 10 -22 1 -14 7 -29 13 -33 6 -3 10 -9 10 -13
-3 -20 0 -26 12 -20 7 5 6 0 -3 -11 -9 -11 -10 -16 -2 -11 8 5 12 -2 12 -26 0
-25 3 -29 10 -18 7 11 10 7 10 -17 0 -18 5 -33 10 -33 6 0 10 -13 10 -30 0
-16 4 -30 8 -30 10 0 43 -90 37 -100 -3 -4 2 -11 11 -14 9 -3 15 -16 14 -28
-3 -36 0 -44 10 -28 7 11 10 7 11 -20 1 -19 1 -39 0 -43 -1 -5 3 -6 9 -2 6 3
10 -3 10 -15 0 -14 4 -19 13 -14 7 5 6 0 -3 -11 -9 -11 -10 -16 -2 -11 8 5 12
-1 12 -18 0 -18 6 -26 18 -27 14 0 14 -2 -3 -9 -15 -7 -16 -9 -4 -9 11 -1 15
-9 14 -26 -2 -14 2 -23 8 -22 6 1 12 -10 12 -25 0 -15 5 -31 9 -35 5 -4 6 -3
2 4 -3 6 -2 14 3 17 5 4 8 -5 7 -19 -2 -14 3 -30 10 -36 8 -6 14 -25 14 -41 0
-17 4 -27 10 -23 9 5 15 -23 11 -47 0 -5 3 -8 9 -8 5 0 10 -12 10 -26 0 -14 4
-23 10 -19 6 4 10 -5 10 -19 0 -14 5 -26 11 -26 5 0 7 -4 4 -10 -3 -5 -1 -10
5 -10 6 0 8 -4 5 -10 -3 -5 -1 -10 5 -10 6 0 8 -4 5 -10 -3 -5 0 -10 7 -10 10
0 10 -2 -1 -9 -7 -5 -9 -10 -5 -12 10 -4 52 -86 56 -109 2 -8 7 -18 12 -22 5
-3 11 -15 12 -25 2 -9 8 -19 14 -21 5 -2 8 -8 4 -13 -3 -5 2 -9 10 -9 9 0 13
-7 11 -19 -2 -11 3 -22 11 -25 9 -3 14 -15 12 -28 -2 -14 2 -22 10 -20 7 1 12
-8 12 -24 0 -14 4 -23 10 -19 6 4 10 -5 10 -19 0 -16 5 -25 13 -24 7 2 11 -5
9 -16 -2 -11 1 -15 7 -11 7 4 11 -4 11 -20 0 -19 4 -25 13 -22 8 3 14 -1 15
-9 1 -8 3 -21 4 -28 1 -8 6 -14 12 -13 6 1 10 -4 8 -10 -1 -7 2 -13 8 -13 5 0
10 -9 10 -21 0 -11 4 -18 9 -15 5 4 15 -7 23 -24 7 -16 19 -30 26 -30 7 0 11
-4 7 -9 -3 -5 2 -17 11 -25 8 -9 12 -16 7 -16 -4 0 4 -11 20 -24 15 -13 27
-31 27 -40 0 -9 7 -16 17 -16 9 0 14 -3 10 -6 -3 -3 8 -20 24 -36 16 -17 29
-37 29 -45 0 -8 5 -11 10 -8 6 3 10 -1 10 -9 0 -8 8 -20 18 -25 9 -6 14 -11
10 -11 -5 0 9 -18 30 -40 70 -74 81 -88 74 -96 -4 -4 1 -4 11 -1 13 5 17 1 17
-15 0 -12 3 -19 6 -15 9 9 34 -19 34 -38 0 -9 5 -13 10 -10 6 3 10 -2 10 -11
0 -10 3 -14 7 -11 6 7 53 -38 53 -52 0 -4 11 -14 25 -21 13 -7 23 -16 22 -20
-3 -12 60 -69 69 -62 4 4 4 -1 1 -10 -5 -13 -1 -18 14 -18 11 0 18 -3 16 -7
-3 -5 1 -14 9 -21 8 -7 14 -9 15 -5 0 4 4 -2 9 -14 5 -13 16 -23 25 -23 8 0
15 -7 15 -16 0 -10 6 -14 15 -10 8 3 14 0 12 -7 -1 -7 4 -11 11 -9 8 1 11 -1
8 -6 -7 -12 27 -39 43 -34 8 3 11 0 7 -7 -8 -12 16 -41 34 -41 6 0 8 -4 5 -10
-3 -5 0 -10 7 -10 8 0 20 -9 28 -20 10 -14 16 -16 22 -7 5 7 8 2 8 -15 0 -16
3 -28 8 -27 17 3 51 -14 46 -22 -3 -5 2 -9 10 -9 9 0 16 -7 16 -15 0 -8 5 -15
10 -15 6 0 24 -13 41 -30 17 -16 40 -32 50 -35 11 -4 16 -11 13 -17 -5 -8 -1
-9 10 -5 14 6 17 3 12 -8 -3 -9 -2 -13 4 -10 6 3 13 -1 16 -10 6 -13 8 -14 15
-3 6 9 9 7 9 -9 0 -15 6 -23 18 -23 10 0 24 -9 32 -20 8 -11 20 -20 28 -20 7
0 10 -5 6 -12 -4 -6 -3 -8 3 -5 6 4 23 -5 37 -18 15 -14 32 -22 38 -19 6 4 8
2 5 -3 -4 -6 0 -16 8 -23 8 -7 15 -9 15 -5 0 4 15 -6 34 -21 67 -57 91 -74
104 -74 7 0 10 -4 7 -10 -3 -5 3 -10 15 -10 12 0 18 -4 15 -10 -3 -6 4 -10 17
-10 18 0 20 -2 8 -10 -12 -8 -11 -10 6 -10 11 0 30 -9 42 -20 12 -11 28 -20
37 -20 9 0 13 -4 10 -10 -6 -9 8 -14 28 -11 4 0 7 -6 7 -15 0 -8 4 -13 9 -9 5
3 16 -2 24 -10 9 -8 24 -15 34 -15 15 0 16 -2 3 -10 -12 -8 -11 -10 6 -10 12
0 24 -7 28 -15 3 -8 9 -14 13 -13 12 3 63 -24 63 -34 0 -4 9 -8 21 -8 11 0 17
-4 14 -10 -3 -6 3 -10 15 -10 12 0 18 -4 15 -10 -3 -5 1 -10 10 -10 9 0 25 -9
37 -20 12 -11 30 -20 40 -20 11 0 16 -4 13 -10 -3 -5 3 -10 14 -10 12 0 21 -4
21 -10 0 -5 6 -10 14 -10 8 0 29 -12 47 -27 18 -16 29 -21 24 -13 -5 9 0 8 13
-4 12 -11 22 -16 22 -13 0 4 9 -1 20 -11 12 -9 23 -15 25 -12 3 3 12 -5 20
-17 9 -13 22 -20 30 -17 8 4 18 -1 21 -10 3 -9 10 -16 16 -16 5 0 6 6 1 13 -4
6 11 -3 34 -21 22 -17 51 -32 63 -32 11 0 18 -4 15 -10 -3 -5 3 -10 14 -10 12
0 21 -4 21 -8 0 -4 10 -9 22 -9 13 -1 28 -9 34 -18 7 -9 18 -14 25 -13 8 2 13
-2 12 -9 -2 -7 4 -10 12 -7 8 4 15 2 15 -4 0 -5 14 -12 31 -16 17 -3 28 -10
24 -15 -3 -6 3 -8 15 -6 11 2 26 -3 34 -11 8 -8 22 -14 31 -14 8 0 18 -6 21
-13 3 -8 18 -13 34 -12 16 1 28 -3 27 -9 -1 -6 4 -10 11 -9 6 2 12 -2 12 -8 0
-5 5 -7 10 -4 6 3 10 1 10 -4 0 -6 3 -10 8 -10 23 4 42 -2 37 -12 -4 -6 -1
-10 6 -8 29 3 50 -1 44 -11 -4 -6 5 -10 19 -10 14 0 26 -5 26 -10 0 -6 3 -9 8
-9 24 4 52 -2 47 -11 -3 -6 4 -10 17 -10 13 0 28 -4 34 -9 5 -6 21 -11 36 -13
15 -2 31 -8 35 -13 4 -4 2 -5 -4 -1 -7 4 -13 2 -13 -3 0 -6 8 -10 18 -9 30 3
112 -24 105 -35 -3 -6 -1 -7 5 -3 6 4 27 0 47 -8 19 -8 35 -13 35 -10 0 2 15
-3 33 -13 17 -9 38 -16 45 -14 8 1 21 -4 30 -11 13 -11 14 -11 7 2 -7 12 -6
13 7 3 8 -7 18 -10 21 -6 4 3 7 1 7 -4 0 -6 12 -10 26 -8 14 1 28 -3 30 -10 3
-7 17 -11 32 -11 15 1 36 -5 46 -14 17 -13 18 -13 11 0 -7 12 -6 13 6 4 8 -6
26 -11 42 -10 15 1 27 -2 27 -7 0 -5 7 -6 16 -3 8 3 13 2 10 -3 -3 -4 20 -9
51 -10 32 -1 61 -7 65 -14 6 -9 8 -8 8 3 0 12 2 13 9 1 7 -11 9 -11 14 0 4 10
6 10 6 2 1 -7 13 -13 27 -13 17 0 23 4 18 13 -6 9 -4 9 7 -1 17 -16 49 -16 49
1 0 9 3 8 9 -2 6 -10 10 -10 13 -1 3 9 61 12 221 13 120 0 220 4 223 9 3 4 16
8 29 8 13 0 26 6 28 12 4 10 6 9 6 -1 1 -11 4 -11 16 -1 8 7 22 10 30 6 9 -3
18 1 21 9 4 8 10 13 15 10 10 -7 99 34 99 46 0 5 3 8 8 8 19 -3 33 2 27 11 -3
6 1 10 10 10 9 0 13 5 10 10 -3 6 1 10 9 10 9 0 15 3 15 8 -3 19 2 33 11 27 6
-3 11 1 11 9 3 32 4 37 14 44 6 4 11 39 11 77 0 39 4 81 8 94 6 18 5 22 -5 17
-8 -4 -6 -1 4 7 18 15 24 33 8 22 -6 -3 -9 3 -8 14 0 11 5 17 9 15 12 -7 5 40
-7 48 -6 5 -6 8 1 8 8 0 12 64 12 220 0 147 -3 218 -10 214 -6 -4 -6 2 1 14
14 27 14 35 -1 26 -7 -5 -8 -3 -2 7 12 19 14 39 4 39 -13 0 -20 29 -8 36 7 4
8 3 4 -4 -4 -7 -2 -12 3 -12 14 0 14 13 -1 28 -7 7 -8 12 -4 12 5 0 2 8 -5 17
-12 15 -12 16 5 10 16 -6 17 -5 7 7 -7 8 -13 30 -13 48 -1 18 -6 36 -12 40 -8
5 -8 8 0 8 11 0 11 24 0 50 -3 8 -7 48 -9 88 -1 57 -5 71 -16 67 -11 -4 -12
-3 -1 10 8 9 9 15 2 15 -6 0 -11 19 -10 42 0 64 -1 70 -14 63 -7 -4 -4 1 7 11
17 14 17 16 3 11 -14 -5 -18 0 -19 21 -3 69 -4 81 -11 88 -5 4 -8 20 -8 36 0
16 -5 28 -12 28 -9 0 -8 4 2 10 12 7 12 10 1 10 -7 0 -11 6 -8 15 4 8 2 17 -3
20 -5 3 -7 15 -5 27 3 12 -1 28 -7 35 -6 8 -12 26 -14 41 -1 15 -3 28 -4 30
-1 1 -3 5 -4 10 -1 4 -5 13 -9 20 -5 7 -3 12 5 12 10 0 10 2 -1 9 -7 5 -11 13
-7 19 3 6 1 14 -5 18 -8 5 -9 3 -4 -6 5 -9 4 -11 -4 -6 -9 6 -9 11 -1 21 8 9
8 15 0 20 -5 3 -10 17 -10 30 0 13 -4 27 -10 30 -5 3 -10 19 -10 36 0 16 -4
29 -10 29 -5 0 -10 14 -10 30 0 17 -5 30 -11 30 -5 0 -8 4 -4 9 3 5 1 12 -4
15 -5 3 -7 16 -4 29 4 18 3 19 -7 7 -10 -12 -11 -11 -7 8 3 12 1 22 -5 22 -5
0 -7 4 -3 9 3 5 1 12 -5 16 -6 4 -8 10 -5 15 3 5 1 11 -5 15 -6 4 -8 11 -5 16
4 5 1 9 -6 9 -8 0 -8 4 1 16 11 12 11 15 0 12 -13 -3 -16 2 -19 38 -1 9 -6 12
-13 8 -7 -4 -10 -4 -6 0 4 5 3 19 -2 31 -6 16 -5 25 3 29 7 2 4 5 -5 5 -11 1
-18 9 -18 20 0 11 -4 21 -9 23 -5 2 -11 14 -13 28 -1 14 -7 28 -11 31 -5 3 -9
14 -11 23 -1 10 -9 22 -17 27 -11 7 -10 9 6 10 18 0 19 1 2 8 -10 4 -19 11
-20 16 -1 6 -5 9 -8 8 -3 -1 -6 4 -6 12 0 8 5 11 11 8 6 -4 3 3 -7 14 -9 11
-14 23 -10 26 3 4 1 7 -5 7 -7 0 -12 9 -12 20 0 11 -4 20 -10 20 -5 0 -10 13
-10 30 0 19 -5 29 -12 27 -8 -1 -12 7 -10 22 2 15 0 21 -7 17 -7 -4 -11 1 -11
13 0 10 -5 21 -11 23 -9 3 -15 22 -18 51 -1 5 -5 6 -10 2 -6 -3 -8 4 -6 15 2
11 0 20 -6 20 -5 0 -9 6 -9 14 0 7 -7 19 -15 26 -8 7 -15 21 -15 32 0 11 -6
26 -12 33 -23 26 -33 41 -36 55 -2 8 -8 17 -13 18 -5 2 -9 12 -9 22 0 10 -5
22 -11 25 -6 4 -8 14 -4 22 4 12 2 13 -8 5 -10 -9 -14 -8 -15 3 -1 8 -3 22 -4
30 -1 8 -5 12 -10 9 -4 -3 -8 2 -8 10 0 9 -4 16 -10 16 -5 0 -10 9 -10 20 0
11 -4 20 -10 20 -5 0 -10 9 -10 20 0 11 -4 20 -10 20 -5 0 -10 7 -10 15 0 8
-3 15 -7 15 -5 0 -21 24 -37 53 -16 28 -36 60 -44 70 -8 9 -12 17 -8 17 4 0 0
7 -8 16 -9 8 -13 20 -10 26 4 6 3 8 -2 5 -6 -3 -16 -2 -24 4 -12 7 -13 9 -1 9
9 0 3 10 -13 25 -15 14 -22 25 -15 25 7 0 2 8 -9 19 -12 10 -22 23 -22 30 0 6
-4 11 -10 11 -5 0 -10 9 -10 21 0 11 -5 17 -10 14 -5 -3 -10 1 -10 9 0 9 -7
16 -16 16 -8 0 -13 4 -9 10 8 13 -17 50 -33 50 -7 0 -10 5 -7 10 3 6 1 10 -4
10 -6 0 -11 6 -11 14 0 8 -7 16 -15 20 -8 3 -15 14 -15 25 0 15 -5 19 -17 14
-10 -3 -15 -3 -11 1 3 4 -7 21 -23 38 -16 17 -26 35 -22 41 3 6 1 7 -5 3 -7
-4 -12 -1 -12 9 0 9 -4 13 -10 10 -5 -3 -10 1 -10 9 0 9 -4 16 -10 16 -5 0
-10 7 -10 16 0 8 -4 12 -10 9 -5 -3 -10 -1 -10 4 0 6 -8 11 -17 11 -15 0 -16
2 -3 10 13 8 13 10 -1 10 -9 0 -20 7 -23 16 -3 8 -10 12 -16 9 -6 -3 -7 1 -4
9 3 9 1 16 -5 16 -19 0 -82 68 -69 73 7 3 3 6 -8 6 -12 1 -25 8 -28 17 -3 8
-11 12 -17 8 -8 -4 -9 -3 -5 5 4 6 0 14 -8 17 -9 3 -13 10 -10 15 3 5 -5 9
-17 9 -12 0 -20 3 -16 6 7 7 -17 34 -31 34 -6 0 -12 7 -16 15 -3 8 -17 20 -31
25 -14 5 -25 14 -25 20 0 6 -4 8 -10 5 -5 -3 -10 1 -10 9 0 9 -6 16 -14 16 -8
0 -18 9 -21 20 -4 11 -10 18 -14 16 -13 -8 -52 24 -45 36 4 6 2 8 -3 5 -6 -4
-16 0 -23 8 -7 8 -16 12 -21 9 -5 -3 -9 4 -9 15 0 12 -5 21 -11 21 -5 0 -7 -4
-4 -10 9 -15 -4 -12 -21 5 -9 8 -12 15 -7 15 4 1 -9 9 -30 19 -20 9 -34 20
-30 24 3 4 0 7 -8 7 -8 0 -27 11 -43 25 -17 14 -36 23 -43 21 -7 -3 -12 0 -10
6 1 7 -3 12 -9 13 -6 0 -18 8 -28 18 -10 9 -22 14 -28 11 -7 -4 -8 -2 -4 4 4
7 1 12 -8 12 -9 0 -16 5 -16 12 0 6 -3 8 -7 5 -3 -4 -12 1 -20 11 -8 9 -11 11
-8 4 6 -11 3 -11 -14 0 -12 7 -21 16 -21 21 0 4 -4 5 -10 2 -5 -3 -10 -1 -10
4 0 6 -7 11 -15 11 -8 0 -15 5 -15 10 0 6 -9 10 -20 10 -11 0 -20 5 -20 10 0
6 -10 10 -22 10 -19 0 -20 2 -8 10 12 8 11 10 -7 10 -12 0 -25 5 -28 10 -3 6
-18 10 -33 10 -21 0 -24 2 -12 10 12 8 9 10 -12 10 -16 0 -33 9 -42 22 -11 15
-16 18 -17 8 0 -10 -3 -8 -9 5 -5 12 -9 14 -9 6 -1 -11 -5 -10 -20 3 -11 10
-25 15 -32 10 -8 -5 -10 -3 -4 6 6 10 4 12 -8 7 -12 -4 -17 -1 -18 11 0 10 -3
12 -6 5 -3 -10 -8 -9 -20 2 -8 8 -19 13 -24 10 -5 -4 -9 -1 -9 4 0 6 -7 11
-16 11 -8 0 -22 7 -31 15 -8 8 -18 13 -23 10 -4 -3 -11 2 -14 11 -3 8 -11 12
-17 9 -5 -4 -18 0 -27 8 -9 8 -27 13 -39 12 -12 -1 -20 2 -17 6 7 11 -42 23
-62 15 -14 -5 -15 -4 -4 9 11 13 8 15 -24 15 -20 0 -36 5 -36 10 0 6 -9 10
-20 10 -11 0 -28 4 -38 9 -51 26 -153 61 -177 61 -8 0 -15 5 -15 11 0 7 -10 9
-26 6 -17 -3 -24 -1 -20 8 2 7 -4 12 -17 12 -40 1 -48 3 -43 11 2 4 -12 9 -32
10 -20 2 -39 8 -43 14 -4 7 -8 6 -12 -3 -4 -11 -6 -10 -6 1 -1 11 -11 15 -37
15 -20 -1 -38 3 -40 9 -2 6 -15 12 -29 12 -14 1 -33 5 -43 10 -23 10 -29 11
-53 13 -13 1 -18 5 -13 14 5 7 0 6 -11 -3 -11 -9 -16 -10 -11 -2 7 11 -24 18
-63 13 -7 -2 -10 2 -6 8 3 6 -1 11 -10 11 -10 0 -14 -5 -9 -12 6 -10 4 -10 -7
0 -7 6 -21 12 -32 12 -11 0 -15 5 -11 11 4 7 -1 7 -16 -1 -15 -8 -20 -8 -16
-1 5 7 -6 11 -33 11 -23 0 -41 4 -41 9 0 5 -16 10 -35 10 -58 3 -65 4 -65 14
0 5 -8 3 -17 -4 -11 -10 -14 -10 -9 -1 7 11 -16 17 -51 13 -6 -1 -14 3 -18 9
-5 8 -12 7 -23 -2 -13 -11 -15 -11 -10 2 4 12 -4 15 -41 15 -25 -1 -51 4 -57
10 -6 6 -33 10 -60 10 -28 -1 -55 5 -62 12 -7 7 -19 13 -25 13 -7 0 -6 -4 3
-10 12 -7 10 -9 -7 -7 -12 0 -20 4 -18 8 4 6 -34 11 -79 10 -11 0 -27 4 -36 9
-10 5 -47 10 -83 11 -42 1 -64 6 -60 12 4 6 1 7 -8 1 -20 -12 -40 -14 -33 -3
3 5 0 9 -5 9 -6 0 -11 -6 -11 -12 0 -10 -3 -9 -9 1 -6 9 -34 14 -94 14 -50 1
-83 6 -79 11 3 5 -2 7 -11 3 -10 -3 -17 -3 -17 1 0 5 -25 7 -55 6 -30 -1 -52
2 -49 7 3 5 0 9 -5 9 -6 0 -11 -4 -11 -8 0 -13 -56 -8 -74 7 -15 12 -16 12
-10 -5 5 -17 4 -17 -8 -3 -8 11 -20 14 -33 9 -11 -4 -29 -4 -40 0 -11 4 -37 6
-57 5 -26 -2 -35 1 -31 9 4 6 -1 5 -10 -3 -16 -13 -21 -9 -18 14 1 6 -5 2 -12
-7 -11 -14 -16 -15 -27 -5 -10 9 -11 9 -6 0 4 -7 2 -13 -3 -13 -6 0 -11 8 -12
18 0 10 -3 12 -6 5 -2 -7 -11 -13 -19 -13 -8 0 -14 6 -14 13 0 9 -3 8 -9 -2
-6 -8 -14 -10 -22 -5 -20 12 -59 13 -59 1 0 -5 -8 -3 -17 4 -15 12 -16 12 -8
-1 7 -12 6 -13 -6 -3 -9 7 -20 9 -29 3 -9 -5 -19 -5 -27 2 -10 8 -13 7 -13 -3
0 -9 -3 -10 -8 -3 -9 13 -270 13 -291 0 -10 -6 -12 -6 -7 2 11 18 1 14 -19 -8z
m475 4 c0 -8 -19 -13 -24 -6 -3 5 1 9 9 9 8 0 15 -2 15 -3z m937 -90 c-3 -3
-12 -4 -19 -1 -8 3 -5 6 6 6 11 1 17 -2 13 -5z m4103 -5634 c0 -5 -5 -10 -11
-10 -5 0 -7 5 -4 10 3 6 8 10 11 10 2 0 4 -4 4 -10z"/>
<path d="M11520 8930 c-12 -7 -10 -9 7 -7 12 0 19 5 17 9 -6 10 -6 10 -24 -2z"/>
<path d="M11775 8910 c-3 -5 -1 -10 4 -10 6 0 11 5 11 10 0 6 -2 10 -4 10 -3
0 -8 -4 -11 -10z"/>
<path d="M19761 8624 c0 -11 3 -14 6 -6 3 7 2 16 -1 19 -3 4 -6 -2 -5 -13z"/>
<path d="M19496 8588 c3 -4 11 -5 19 -1 21 7 19 12 -4 10 -11 0 -18 -5 -15 -9z"/>
<path d="M24367 8023 c-3 -5 -25 -8 -49 -7 -23 0 -47 -4 -51 -10 -6 -8 -10 -7
-14 2 -4 10 -8 10 -21 0 -12 -10 -14 -10 -8 0 4 6 2 12 -3 12 -6 0 -11 -4 -11
-9 0 -6 -9 -9 -20 -8 -11 1 -20 6 -20 12 0 7 -3 7 -8 0 -4 -6 -41 -11 -82 -11
-56 0 -74 -3 -72 -13 2 -10 -2 -9 -17 1 -20 14 -95 13 -86 -1 2 -4 -2 -8 -10
-8 -8 0 -12 4 -9 9 8 13 -10 10 -25 -4 -12 -11 -13 -9 -7 7 5 17 4 18 -6 5 -7
-8 -21 -16 -32 -18 -14 -3 -17 1 -12 15 5 16 5 16 -7 2 -9 -12 -28 -17 -62
-17 -120 -1 -130 -2 -115 -12 9 -6 10 -10 3 -10 -6 0 -15 5 -18 10 -3 6 -11
10 -16 10 -6 0 -7 -4 -4 -10 3 -5 1 -10 -4 -10 -6 0 -11 5 -11 10 0 6 -5 10
-11 10 -5 0 -7 -4 -4 -10 3 -5 -1 -10 -10 -10 -10 0 -14 5 -9 13 6 10 4 10 -7
0 -7 -8 -38 -13 -71 -13 -40 0 -58 -4 -58 -12 0 -9 -4 -8 -10 2 -9 13 -10 13
-10 0 0 -13 -2 -13 -9 -1 -8 12 -13 12 -24 3 -8 -7 -46 -13 -87 -13 -47 -1
-68 -4 -59 -10 12 -7 11 -9 -1 -9 -9 0 -22 6 -29 13 -11 10 -13 10 -7 0 5 -10
-7 -13 -48 -13 -38 0 -56 -4 -56 -12 0 -9 -3 -9 -9 1 -8 12 -12 12 -25 2 -9
-7 -25 -11 -36 -8 -11 3 -20 1 -20 -4 0 -5 -10 -7 -22 -5 -13 2 -29 -2 -37 -8
-11 -8 -13 -8 -7 1 5 9 2 11 -8 7 -9 -3 -13 -11 -9 -18 4 -6 -1 -5 -10 3 -14
11 -17 11 -17 0 0 -10 -2 -11 -8 -2 -5 7 -13 9 -21 3 -8 -4 -20 -6 -28 -3 -7
3 -13 -1 -13 -8 0 -12 -2 -12 -9 0 -6 9 -10 10 -16 2 -5 -9 -11 -9 -23 1 -13
11 -15 11 -10 -2 5 -13 -5 -16 -63 -15 -53 0 -66 -3 -54 -11 12 -9 7 -11 -23
-12 -43 0 -84 -6 -97 -14 -6 -3 -28 -6 -50 -7 -63 -4 -64 -4 -59 -12 2 -4 -4
-8 -13 -8 -68 -2 -91 -5 -87 -13 5 -8 -2 -10 -41 -12 -11 -1 -26 -5 -34 -10
-10 -7 -12 -5 -7 5 4 8 0 5 -8 -5 -12 -15 -16 -16 -16 -5 0 9 -3 10 -8 3 -4
-6 -24 -11 -44 -10 -20 0 -36 -3 -35 -8 1 -4 -14 -10 -32 -12 -19 -2 -38 -9
-42 -15 -4 -8 -8 -7 -12 2 -4 10 -6 10 -6 2 -1 -8 -15 -13 -37 -13 -21 0 -33
-4 -29 -10 4 -6 -12 -10 -40 -10 -28 0 -44 -4 -40 -10 6 -9 -18 -13 -77 -13
-10 0 -15 -4 -12 -8 3 -5 -9 -9 -26 -9 -22 0 -29 -4 -24 -12 5 -9 2 -9 -9 1
-15 12 -17 11 -17 -2 0 -11 -7 -15 -20 -12 -28 5 -51 -5 -43 -19 4 -6 -2 -4
-12 4 -15 12 -17 12 -10 1 6 -11 4 -13 -8 -8 -9 3 -18 1 -21 -6 -3 -9 -5 -9
-5 0 -1 7 -8 10 -16 7 -8 -4 -12 -10 -9 -16 3 -5 0 -9 -7 -7 -28 3 -50 -1 -45
-10 3 -5 0 -9 -7 -8 -6 0 -28 -1 -47 -2 -27 -1 -31 -4 -20 -11 11 -7 5 -10
-23 -10 -28 0 -36 -3 -31 -12 5 -8 0 -7 -11 2 -11 9 -16 10 -11 3 7 -13 0 -16
-36 -16 -10 0 -15 -4 -12 -8 5 -8 -13 -13 -43 -12 -7 1 -13 -3 -13 -9 0 -5 -4
-6 -10 -3 -5 3 -10 1 -10 -6 0 -7 -3 -9 -7 -6 -3 4 -17 0 -30 -8 -13 -9 -27
-14 -32 -11 -4 3 -17 -1 -27 -9 -10 -8 -29 -15 -42 -15 -13 0 -21 -4 -18 -8 2
-4 -7 -9 -22 -10 -15 -1 -31 -8 -37 -15 -5 -6 -19 -12 -30 -12 -12 0 -19 -6
-17 -14 3 -12 0 -12 -12 -1 -12 9 -16 9 -16 1 0 -7 -4 -9 -10 -6 -5 3 -10 1
-10 -5 0 -6 -4 -8 -10 -5 -5 3 -10 1 -10 -5 0 -7 -7 -9 -15 -6 -9 3 -18 -1
-22 -9 -4 -13 -8 -13 -21 -3 -12 10 -14 10 -8 1 4 -8 1 -13 -8 -13 -9 0 -16
-4 -16 -8 0 -4 -12 -9 -27 -10 -16 -1 -29 -7 -31 -12 -2 -6 -10 -10 -18 -10
-9 0 -12 -5 -8 -12 4 -7 3 -8 -5 -4 -6 4 -23 1 -36 -8 -13 -9 -31 -16 -40 -16
-10 0 -13 -5 -9 -12 5 -9 2 -8 -9 1 -15 12 -17 12 -11 -2 4 -12 1 -15 -15 -12
-12 2 -21 -1 -21 -6 0 -6 -4 -7 -10 -4 -5 3 -10 1 -10 -4 0 -6 -9 -11 -21 -11
-11 0 -17 -4 -14 -10 3 -5 -3 -10 -13 -10 -25 0 -74 -25 -65 -33 3 -4 -6 -7
-21 -7 -14 0 -29 -7 -32 -15 -4 -8 -13 -15 -21 -15 -8 0 -34 -13 -58 -30 -24
-16 -48 -30 -54 -30 -6 0 -11 -4 -11 -10 0 -5 -9 -10 -21 -10 -11 0 -36 -12
-54 -26 -19 -14 -39 -23 -45 -19 -6 4 -9 2 -8 -3 2 -6 -1 -10 -5 -10 -5 -1
-17 -10 -26 -21 -10 -11 -21 -18 -25 -14 -3 3 -6 1 -6 -5 0 -7 -9 -12 -21 -12
-11 0 -17 -4 -14 -10 3 -5 -3 -10 -14 -10 -12 0 -21 -4 -21 -10 0 -5 -9 -10
-20 -10 -11 0 -19 -6 -17 -12 1 -8 -6 -12 -17 -10 -13 3 -17 -1 -13 -12 4 -10
0 -14 -13 -11 -10 2 -21 -3 -24 -11 -3 -9 -9 -13 -14 -10 -4 2 -14 1 -22 -5
-13 -7 -13 -9 0 -9 8 0 -1 -8 -20 -19 -19 -10 -39 -16 -44 -13 -5 3 -6 0 -2
-6 4 -7 1 -12 -9 -12 -9 0 -13 -4 -10 -10 3 -5 -1 -10 -9 -10 -9 0 -16 -4 -16
-10 0 -5 -7 -10 -15 -10 -8 0 -15 -5 -15 -12 0 -6 -3 -9 -6 -5 -8 8 -33 -16
-27 -25 2 -5 -8 -8 -22 -8 -15 0 -24 -4 -20 -10 3 -5 0 -10 -7 -10 -16 -1 -63
-41 -71 -61 -4 -11 -6 -11 -6 0 -1 8 -8 4 -21 -10 -10 -13 -19 -20 -20 -14 0
5 -7 -1 -16 -13 -8 -12 -20 -19 -26 -16 -7 4 -8 2 -4 -4 4 -8 0 -12 -11 -12
-15 0 -16 -2 -3 -10 13 -8 12 -10 -5 -11 -11 -1 -24 -1 -28 0 -5 1 -6 -3 -2
-9 3 -5 -1 -10 -9 -10 -8 0 -18 -5 -22 -12 -5 -7 -2 -9 7 -4 8 4 3 -2 -11 -13
-14 -11 -31 -19 -37 -16 -7 2 -12 1 -11 -3 3 -18 -16 -42 -36 -42 -17 0 -18
-2 -6 -10 13 -9 13 -10 0 -11 -8 -1 -18 -1 -22 0 -5 0 -8 -8 -8 -18 0 -13 -8
-21 -22 -23 -13 -2 -22 -9 -20 -17 2 -9 -3 -11 -13 -7 -9 3 -13 2 -10 -4 3 -6
-1 -13 -9 -16 -9 -3 -13 -10 -10 -15 3 -5 -4 -9 -16 -9 -12 0 -19 -4 -16 -8 3
-5 -6 -16 -19 -26 -14 -10 -22 -22 -19 -27 3 -5 -1 -6 -9 -3 -8 3 -18 0 -23
-7 -4 -8 -3 -10 4 -5 7 4 12 2 12 -3 0 -6 -6 -11 -14 -11 -8 0 -21 -9 -29 -20
-8 -11 -17 -17 -20 -13 -4 3 -7 1 -7 -6 0 -7 -18 -30 -40 -52 -22 -22 -40 -44
-40 -49 0 -6 -7 -10 -15 -10 -8 0 -15 -5 -15 -11 0 -5 -5 -7 -12 -3 -8 5 -9 2
-5 -9 4 -11 1 -17 -8 -17 -8 0 -14 -6 -12 -12 1 -7 -4 -12 -10 -11 -7 2 -12 0
-10 -5 1 -4 -10 -21 -25 -37 -15 -16 -25 -32 -22 -37 3 -4 0 -8 -6 -8 -11 0
-65 -50 -65 -60 1 -11 -29 -39 -37 -34 -4 3 -6 -1 -3 -8 6 -17 -21 -52 -34
-43 -6 3 -11 1 -11 -5 0 -14 -72 -110 -83 -110 -4 0 -5 -4 -2 -10 3 -5 -1 -10
-9 -10 -10 0 -13 -6 -9 -15 3 -10 0 -15 -8 -13 -8 2 -13 -4 -13 -14 1 -10 -3
-15 -8 -12 -5 3 -12 -3 -15 -15 -3 -11 -9 -18 -14 -15 -5 3 -9 0 -9 -7 0 -6
-10 -21 -23 -33 -13 -12 -22 -27 -19 -34 2 -7 -2 -11 -9 -10 -7 2 -14 -4 -14
-12 0 -8 -6 -14 -13 -13 -7 2 -12 -4 -12 -12 0 -8 -4 -15 -10 -15 -5 0 -10 -7
-10 -16 0 -18 -25 -46 -34 -37 -6 6 -10 -21 -7 -40 1 -5 -2 -6 -6 -4 -5 3 -17
-2 -28 -10 -20 -16 -20 -16 0 -9 20 6 20 6 0 -11 -12 -10 -30 -33 -40 -50 -11
-18 -23 -33 -27 -33 -4 0 -8 -7 -8 -16 0 -8 -4 -12 -10 -9 -5 3 -10 -1 -10 -9
0 -9 -5 -16 -11 -16 -5 0 -7 -4 -4 -10 3 -5 1 -10 -5 -10 -6 0 -8 -4 -5 -10 3
-5 -1 -10 -10 -10 -9 0 -13 -5 -10 -10 3 -6 -1 -13 -9 -16 -9 -3 -13 -10 -10
-15 3 -5 1 -9 -5 -9 -6 0 -14 -12 -17 -26 -5 -19 -9 -22 -15 -12 -6 9 -9 7 -9
-9 0 -12 -8 -27 -17 -32 -10 -6 -14 -11 -10 -11 5 0 -3 -14 -17 -31 -14 -17
-24 -35 -20 -40 3 -5 -3 -9 -12 -9 -10 0 -15 -3 -11 -6 3 -4 -1 -13 -9 -21 -8
-8 -12 -19 -9 -24 4 -5 -1 -9 -10 -9 -9 0 -14 -4 -11 -9 3 -4 -6 -21 -19 -37
-14 -16 -25 -34 -25 -40 0 -7 -14 -26 -32 -43 -17 -17 -27 -31 -20 -31 6 0 0
-12 -13 -26 -14 -15 -25 -36 -25 -46 0 -11 -4 -16 -10 -13 -9 6 -14 -8 -11
-27 0 -5 -6 -8 -14 -8 -8 0 -12 -6 -9 -14 3 -8 0 -17 -7 -22 -8 -5 -10 -3 -4
6 5 8 4 11 -3 7 -5 -4 -8 -17 -4 -29 3 -13 1 -19 -5 -15 -12 8 -26 -20 -17
-34 3 -5 -2 -9 -10 -9 -9 0 -16 -7 -16 -15 0 -8 -5 -15 -11 -15 -6 0 -9 -6 -6
-14 3 -8 -1 -17 -9 -20 -8 -3 -14 -14 -14 -23 0 -10 -9 -25 -19 -33 -11 -7
-18 -17 -15 -22 3 -4 1 -8 -4 -8 -6 0 -8 -9 -5 -20 4 -16 2 -19 -12 -13 -12 4
-16 3 -12 -4 9 -15 -2 -44 -14 -37 -5 3 -6 -1 -3 -9 3 -8 -2 -17 -10 -20 -9
-4 -13 -13 -10 -20 3 -8 -2 -17 -10 -20 -9 -4 -16 -17 -16 -29 0 -13 -9 -29
-20 -36 -13 -8 -20 -23 -20 -43 0 -17 -4 -28 -10 -24 -5 3 -10 1 -10 -4 0 -20
-3 -26 -18 -37 -8 -6 -12 -16 -9 -21 4 -6 0 -13 -8 -17 -8 -3 -15 -15 -15 -26
0 -12 -4 -19 -8 -16 -5 3 -9 0 -9 -7 -1 -21 -8 -42 -16 -48 -4 -3 -9 -15 -10
-27 0 -11 -4 -19 -8 -16 -6 3 -9 -6 -20 -46 -5 -21 -22 -39 -31 -34 -7 4 -8 3
-4 -4 4 -6 4 -23 0 -37 -5 -20 -9 -23 -15 -13 -6 8 -9 -1 -9 -27 0 -30 -3 -36
-10 -25 -8 12 -10 9 -10 -13 0 -16 -4 -26 -8 -23 -7 4 -11 -9 -14 -51 -1 -7
-5 -10 -10 -7 -7 5 -12 -18 -9 -38 0 -5 -6 -8 -15 -8 -8 0 -12 -5 -9 -10 4 -6
-1 -22 -10 -36 -9 -13 -13 -29 -10 -34 3 -6 0 -10 -7 -10 -9 0 -9 -3 2 -10 13
-8 12 -10 -4 -10 -12 0 -16 -5 -12 -15 3 -8 -1 -18 -9 -22 -15 -9 -15 -9 -15
-50 0 -22 -2 -25 -10 -13 -7 11 -10 7 -10 -17 0 -17 -4 -33 -10 -35 -5 -1 -10
-17 -12 -35 -1 -22 -6 -29 -13 -23 -7 6 -11 2 -11 -10 0 -10 5 -16 11 -13 5 4
2 -3 -8 -14 -10 -12 -20 -33 -22 -48 -1 -15 -8 -31 -15 -35 -6 -4 -11 -10 -11
-14 1 -3 1 -18 0 -33 0 -25 -1 -26 -9 -8 -7 16 -9 13 -9 -17 -1 -21 -5 -38
-11 -38 -5 0 -10 -16 -10 -36 0 -24 -4 -33 -12 -28 -7 4 -8 3 -4 -5 4 -6 2
-18 -4 -26 -7 -8 -9 -15 -5 -15 4 0 0 -11 -9 -25 -11 -16 -12 -25 -5 -25 8 0
8 -4 -1 -15 -6 -8 -9 -19 -5 -25 4 -6 1 -9 -7 -8 -13 3 -14 -2 -17 -50 0 -13
-5 -20 -11 -17 -5 3 -10 1 -10 -4 0 -6 6 -11 13 -11 7 0 5 -5 -5 -11 -10 -5
-15 -16 -11 -24 3 -9 0 -21 -6 -28 -6 -7 -11 -27 -13 -44 -1 -18 -6 -29 -10
-27 -4 3 -8 -5 -8 -18 0 -13 -6 -30 -12 -37 -10 -11 -10 -13 0 -7 6 4 12 3 12
-3 0 -5 -4 -11 -9 -13 -5 -1 -11 -14 -13 -28 -1 -14 -7 -28 -13 -32 -5 -4 -8
-21 -7 -39 2 -17 0 -29 -5 -26 -6 4 -10 0 -10 -8 0 -8 5 -11 11 -8 6 4 3 -2
-6 -13 -9 -11 -15 -31 -14 -47 2 -15 -1 -30 -7 -34 -6 -4 -7 -1 -2 7 5 9 4 11
-3 6 -9 -5 -9 -13 -1 -28 8 -15 8 -19 -1 -13 -7 4 -11 1 -9 -6 4 -31 -2 -70
-9 -65 -4 3 -8 -5 -9 -17 -1 -66 -4 -78 -14 -71 -7 4 -7 -1 1 -16 8 -15 8 -20
1 -16 -10 7 -16 -19 -12 -53 2 -7 -2 -10 -9 -6 -9 6 -9 2 -1 -13 8 -15 8 -24
-2 -34 -6 -7 -12 -32 -12 -55 0 -23 -3 -40 -6 -37 -4 2 -10 -3 -13 -12 -5 -12
-2 -15 11 -10 15 6 15 5 2 -11 -8 -10 -15 -32 -14 -50 1 -21 -4 -34 -14 -38
-14 -6 -13 -8 3 -21 14 -10 16 -14 5 -14 -11 0 -14 -15 -14 -61 0 -37 -5 -65
-13 -71 -10 -9 -10 -14 0 -26 8 -9 8 -13 2 -9 -8 5 -11 -10 -11 -48 0 -32 -6
-62 -14 -72 -10 -11 -10 -14 -1 -9 6 4 12 2 12 -3 0 -6 -6 -11 -12 -11 -9 0
-8 -4 2 -10 13 -9 13 -10 0 -10 -13 0 -13 -1 0 -10 12 -8 12 -10 1 -10 -11 0
-11 -3 0 -17 11 -13 11 -15 1 -9 -9 5 -13 3 -11 -5 1 -8 1 -36 0 -62 -1 -36
-4 -46 -13 -41 -10 6 -10 5 -1 -7 13 -16 15 -92 3 -84 -4 2 -7 -2 -7 -10 0 -8
4 -15 9 -15 5 0 6 -6 1 -12 -4 -7 -8 -26 -9 -42 -1 -19 1 -24 7 -15 6 10 8 8
6 -8 0 -12 -5 -19 -9 -17 -4 3 -8 -36 -8 -86 0 -70 3 -90 13 -84 10 6 10 4 0
-7 -8 -7 -13 -39 -13 -74 0 -42 3 -56 10 -45 5 8 10 10 10 5 0 -6 -5 -16 -12
-23 -9 -9 -9 -12 1 -12 7 0 10 -4 7 -9 -3 -4 3 -18 14 -31 10 -12 16 -28 13
-36 -3 -7 2 -17 12 -20 10 -4 14 -13 10 -22 -3 -9 -3 -14 0 -10 8 8 65 -44 65
-60 0 -7 5 -10 10 -7 6 3 10 -2 10 -12 0 -15 2 -16 10 -3 6 10 10 11 10 3 0
-7 8 -13 18 -13 14 0 15 -2 2 -10 -12 -8 -10 -10 8 -10 13 0 20 -4 17 -10 -4
-6 5 -10 19 -10 14 0 26 -5 26 -11 0 -5 4 -8 9 -4 5 3 16 -2 24 -10 9 -8 23
-15 31 -15 9 0 16 -8 16 -17 0 -14 2 -15 9 -4 5 8 11 9 15 3 4 -6 15 -9 26 -7
13 2 17 -1 14 -10 -4 -9 1 -12 13 -11 10 2 24 -1 31 -7 6 -5 12 -6 12 -2 0 4
6 3 13 -2 6 -5 19 -9 27 -8 8 0 21 -5 28 -12 7 -7 31 -13 53 -13 21 0 39 -4
39 -8 0 -5 14 -9 31 -10 17 0 40 -8 50 -18 10 -9 19 -12 19 -6 0 6 -3 12 -7
15 -5 2 -1 2 7 -1 8 -2 31 -8 51 -12 19 -3 42 -10 49 -15 8 -5 11 -4 7 2 -8
13 42 10 51 -3 6 -9 21 -11 124 -15 24 -1 35 -6 31 -13 -4 -6 0 -5 9 2 13 10
17 10 22 0 5 -11 7 -11 12 0 4 9 9 10 19 2 7 -6 17 -10 21 -9 29 5 54 -2 48
-14 -5 -7 0 -6 11 3 11 9 16 10 11 3 -5 -10 4 -13 36 -13 31 0 39 -3 28 -10
-20 -13 -4 -13 20 0 13 7 21 7 25 0 10 -15 338 -13 354 3 11 10 13 9 7 -1 -8
-13 19 -13 41 1 6 4 14 3 18 -3 3 -5 12 -10 18 -10 7 0 6 4 -3 10 -11 7 -1 10
35 10 73 0 108 4 124 14 9 6 12 5 8 0 -3 -5 3 -10 13 -10 12 0 16 4 10 11 -5
7 7 9 38 8 26 0 50 4 54 10 5 8 8 7 8 -3 0 -13 1 -13 10 0 7 11 10 11 10 2 0
-7 5 -10 10 -7 6 4 7 11 4 17 -4 6 2 6 15 -1 11 -7 21 -8 21 -3 0 4 18 8 39 7
22 -1 37 3 35 7 -3 4 1 8 8 9 62 4 79 6 84 12 4 4 13 2 21 -5 10 -8 12 -8 8 3
-5 14 8 17 90 19 22 1 26 3 15 11 -12 8 -11 10 5 8 50 -4 76 1 69 14 -6 10 -4
10 7 0 16 -15 33 -17 24 -3 -4 6 10 10 35 10 30 0 39 3 34 13 -5 8 -2 7 9 -2
10 -8 20 -11 24 -7 3 3 1 6 -6 6 -7 0 -10 4 -7 8 2 4 17 7 33 6 15 0 34 6 41
15 8 9 11 11 8 5 -3 -7 1 -14 9 -18 8 -3 14 0 12 6 -1 6 11 12 27 15 16 2 37
8 45 12 9 5 30 8 48 7 21 -1 28 3 23 9 -6 7 3 12 28 13 20 2 39 8 43 14 4 7 8
6 12 -3 4 -10 6 -10 6 -1 1 6 13 12 27 12 17 0 23 4 18 13 -5 7 0 6 11 -3 11
-9 16 -10 11 -2 -5 8 2 12 26 13 18 1 37 1 42 0 5 -1 6 4 3 11 -3 9 4 13 22
12 14 0 29 4 33 10 5 7 8 6 8 -4 0 -12 2 -12 8 -2 5 7 22 15 38 18 16 3 32 11
36 17 6 9 8 9 8 -1 0 -10 4 -9 16 3 14 13 19 14 25 3 8 -12 13 -4 10 16 -1 5
6 3 15 -5 12 -9 15 -9 10 -1 -5 8 -1 12 13 12 11 0 23 4 26 10 3 5 20 10 36
10 17 0 28 4 25 8 -2 4 3 8 12 9 44 3 62 8 62 16 0 4 4 6 8 3 5 -3 19 2 32 11
13 9 36 17 53 19 16 1 32 6 36 12 3 5 14 8 24 6 10 -1 21 4 24 13 5 12 7 12
14 1 7 -11 9 -11 9 1 0 8 7 11 20 8 13 -3 20 0 20 9 0 9 11 14 30 14 17 0 30
5 30 13 0 8 4 7 10 -3 6 -10 10 -11 10 -2 0 6 6 12 14 12 8 0 17 6 19 13 4 9
6 9 6 -1 1 -10 5 -10 16 2 9 8 23 12 32 9 12 -5 14 -3 8 7 -6 10 -4 12 8 7 10
-3 17 -2 17 4 0 6 4 8 9 4 5 -3 12 -1 16 5 4 6 11 8 16 5 5 -4 9 -1 9 5 0 7 7
10 15 6 8 -3 21 2 30 10 8 9 15 12 15 9 0 -4 11 0 25 9 13 9 31 16 39 16 8 0
17 6 19 13 4 9 6 9 6 0 1 -7 6 -13 12 -13 5 0 7 5 4 10 -6 9 8 14 28 11 4 0 7
3 7 9 0 5 8 10 19 10 10 0 24 6 30 14 6 7 22 12 36 10 17 -1 25 3 25 13 0 9 6
13 15 9 8 -3 21 2 30 10 8 9 15 11 15 4 0 -6 10 -2 22 10 12 11 32 20 45 20
13 0 23 5 23 10 0 6 12 10 26 10 14 0 23 4 20 8 -2 4 5 9 17 9 12 1 23 7 25
13 2 5 8 8 13 4 5 -3 9 -1 9 5 0 6 7 8 15 5 8 -4 17 1 21 10 3 9 10 16 16 16
5 0 6 -4 3 -10 -3 -5 0 -7 9 -4 8 3 17 12 20 20 3 9 10 13 14 10 5 -3 18 1 28
9 10 8 27 15 37 15 9 0 17 5 17 10 0 6 9 10 21 10 11 0 32 9 46 20 14 11 34
20 45 20 10 0 21 6 24 14 3 8 12 12 20 9 8 -3 14 0 14 7 0 6 5 8 10 5 6 -3 10
-1 10 5 0 6 5 8 10 5 6 -3 10 -1 10 5 0 6 5 8 10 5 6 -3 10 -1 10 4 0 6 12 11
28 11 21 0 24 2 12 10 -12 8 -10 10 10 10 14 0 34 7 44 15 10 8 22 12 26 10 5
-3 11 2 14 11 3 8 10 13 15 10 5 -3 14 1 21 9 6 7 17 12 24 9 7 -3 20 4 30 15
10 11 23 18 27 15 5 -3 9 0 9 6 0 6 5 8 10 5 6 -3 10 -2 10 4 0 6 7 7 17 4 11
-4 14 -3 9 5 -4 7 -1 12 9 12 9 0 14 4 11 8 -2 4 7 9 22 10 15 1 33 10 40 19
6 9 12 13 12 7 0 -5 5 -1 10 8 6 10 19 15 30 13 13 -2 20 2 20 11 0 8 4 13 9
9 5 -3 16 2 24 10 9 8 26 15 38 15 12 0 19 3 16 7 -9 8 64 43 75 37 4 -3 5 2
2 11 -5 11 -2 14 10 9 11 -4 16 -1 16 11 0 9 5 13 10 10 6 -3 10 0 10 7 0 11
2 10 9 0 6 -11 10 -10 15 3 4 11 13 15 27 12 17 -5 18 -3 7 11 -8 10 -8 13 -1
9 6 -4 17 -1 25 6 18 17 70 41 85 38 7 -1 10 4 7 13 -4 11 1 14 20 12 19 -2
23 0 17 8 -7 8 -4 12 10 13 10 1 32 11 48 22 16 12 35 21 43 21 10 0 9 3 -2
10 -12 8 -9 10 13 10 15 0 27 5 27 10 0 6 7 10 16 10 9 0 12 5 8 12 -4 7 -3 8
4 4 6 -4 20 2 32 14 11 11 20 17 20 13 0 -5 5 0 11 10 5 9 16 17 24 17 8 0 23
9 33 21 11 11 29 21 40 22 11 0 18 5 16 9 -3 4 4 8 16 8 12 0 19 4 16 9 -3 4
11 17 32 27 20 10 39 22 40 27 2 4 10 7 18 7 8 0 14 5 14 10 0 6 5 10 11 10
15 0 39 26 39 42 0 10 3 9 10 -2 8 -12 10 -12 11 5 0 11 3 14 6 7 3 -9 10 -7
24 9 10 12 19 19 19 16 0 -4 9 2 20 13 12 12 26 18 32 14 8 -5 9 -1 5 10 -5
12 -3 16 5 13 7 -2 19 3 26 12 10 12 12 13 6 1 -7 -13 -5 -13 9 -1 9 7 14 17
11 22 -3 5 2 9 10 9 9 0 16 5 16 10 0 6 9 10 21 10 11 0 17 5 14 10 -3 6 1 10
10 10 8 0 18 7 22 16 3 8 12 13 20 9 11 -3 13 -1 9 10 -3 8 -2 14 2 14 20 -3
33 2 27 11 -3 6 3 10 14 10 12 0 21 5 21 10 0 6 7 10 16 10 8 0 13 3 11 8 -3
4 1 12 8 19 11 10 15 10 18 0 3 -7 6 -5 6 5 1 12 6 15 19 11 15 -6 16 -5 2 12
-8 10 -10 16 -4 12 7 -4 17 0 24 8 7 8 18 15 26 15 7 0 18 9 24 20 6 11 17 20
25 20 8 0 21 9 29 21 8 12 19 18 25 14 7 -3 10 -1 9 6 -2 7 7 18 19 24 13 7
20 15 16 18 -3 4 1 7 10 7 9 0 17 5 17 11 0 5 5 7 10 4 6 -3 10 1 10 9 0 9 6
16 13 16 6 0 23 12 37 28 14 15 21 21 16 12 -5 -8 5 0 21 17 17 18 36 33 42
33 7 0 10 3 8 7 -5 8 24 41 30 36 2 -2 9 -3 16 -3 8 0 7 4 -3 10 -12 8 -10 10
8 10 13 0 21 4 17 9 -3 5 4 12 15 16 11 4 18 11 15 16 -4 5 0 9 7 9 8 0 20 9
28 19 7 11 17 18 22 15 4 -3 8 4 8 15 0 15 4 19 17 14 11 -4 14 -3 9 5 -4 7
-2 12 4 12 18 0 42 29 34 41 -4 7 -3 9 4 5 6 -3 13 -2 17 4 4 6 11 7 17 4 6
-4 8 -2 5 3 -4 6 0 13 8 17 8 3 15 12 15 21 0 8 6 15 14 15 8 0 21 9 29 20 8
11 17 17 22 12 4 -4 5 1 2 10 -3 10 -3 17 1 17 18 -3 33 2 29 9 -6 9 49 63 57
55 3 -4 6 1 6 10 0 10 8 17 17 17 9 0 14 3 10 6 -8 8 34 54 45 48 4 -3 8 4 8
15 0 12 7 21 16 21 8 0 13 4 10 8 -3 5 6 15 19 22 13 7 21 18 18 23 -4 6 0 8
10 4 12 -4 15 -1 12 14 -3 15 0 19 10 15 9 -3 15 1 15 10 0 8 5 12 10 9 6 -3
10 1 10 9 0 9 5 16 10 16 6 0 10 7 10 15 0 8 6 12 14 9 11 -4 13 0 9 17 -4 13
-2 20 4 16 10 -6 43 27 43 44 0 5 5 7 10 4 9 -5 15 15 11 37 0 5 2 7 7 7 4 -1
14 -1 22 0 13 1 13 2 0 11 -12 8 -10 10 10 10 20 0 22 2 10 10 -13 8 -12 10 2
10 10 0 17 6 15 13 -1 6 3 11 10 10 8 -2 10 4 6 15 -3 9 -3 14 2 10 8 -8 45
33 45 51 0 6 5 11 10 11 6 0 10 10 10 23 0 16 3 18 9 9 7 -11 10 -10 15 3 3 9
3 21 0 26 -3 5 -2 8 3 7 4 -2 10 2 12 7 2 6 12 16 23 23 10 7 16 17 14 21 -3
4 8 20 25 35 16 15 29 36 29 46 0 10 7 21 16 24 8 3 12 10 9 16 -3 5 -1 10 4
10 6 0 11 7 11 16 0 8 4 13 9 10 5 -3 12 6 15 19 4 14 11 23 16 20 6 -3 7 1 4
9 -3 9 -1 16 4 16 6 0 14 9 17 20 4 11 11 18 16 14 5 -3 9 -2 8 3 -4 22 2 43
11 38 6 -3 10 2 10 12 1 23 25 55 35 45 5 -4 5 1 2 11 -4 9 -3 17 2 17 5 0 20
22 33 50 14 27 28 47 31 43 4 -3 7 1 7 11 0 9 9 26 20 38 11 12 20 32 20 44 0
12 7 25 16 28 8 3 12 10 9 16 -3 5 2 10 12 11 10 0 13 3 6 6 -10 3 -10 7 0 18
7 7 14 11 17 10 3 -2 7 6 7 17 1 12 7 24 13 28 6 4 12 16 13 28 0 11 5 18 9
16 4 -3 8 2 8 11 0 9 4 13 10 10 6 -3 7 1 4 9 -3 9 -1 16 6 16 6 0 8 4 5 10
-3 6 1 10 9 10 10 0 13 6 9 17 -5 12 -3 14 8 8 12 -7 12 -6 -1 11 -8 10 -10
16 -6 12 9 -8 46 43 46 64 0 6 10 19 22 29 13 12 16 19 8 19 -9 0 -7 5 6 15
10 8 15 15 10 15 -5 0 -1 9 9 20 10 11 14 20 9 20 -5 0 -3 4 4 9 7 4 14 15 16
24 1 10 11 24 22 32 12 9 14 14 6 15 -7 0 -10 5 -7 10 4 6 11 8 16 5 5 -4 9 6
9 20 0 17 4 24 11 19 7 -4 10 -1 7 7 -3 8 1 19 9 24 8 6 15 20 16 32 1 15 5
19 13 12 8 -7 10 -2 6 16 -3 19 0 25 14 25 16 0 17 2 4 10 -11 7 -11 10 -2 10
7 0 10 5 7 10 -3 6 1 10 10 10 9 0 13 5 10 10 -3 6 -2 10 4 10 6 0 8 7 5 15
-4 8 -1 15 5 15 6 0 11 9 11 21 0 11 5 17 10 14 6 -3 10 3 10 14 0 11 5 23 10
26 6 3 10 15 10 26 0 11 5 17 10 14 9 -5 15 16 11 38 -1 5 3 6 9 2 5 -3 11 -1
11 4 1 6 2 17 3 24 1 6 7 11 14 10 6 -2 9 4 6 12 -4 8 1 17 10 21 9 3 13 10
10 15 -3 5 0 9 7 9 8 0 8 4 -1 15 -10 12 -10 15 0 15 18 0 39 31 40 59 0 19 3
21 14 12 11 -9 12 -6 8 14 -2 15 0 25 7 25 7 0 9 5 6 10 -3 6 -1 10 5 10 6 0
8 5 5 10 -3 6 2 10 11 10 16 0 16 1 -2 15 -18 15 -18 15 0 8 13 -4 17 -3 12 5
-4 7 -1 12 8 12 9 0 15 4 14 8 -4 12 25 82 34 82 4 0 8 7 8 16 0 8 4 13 8 10
4 -2 9 5 9 17 1 12 10 27 19 34 9 7 14 19 10 28 -3 9 -2 13 3 10 5 -3 12 4 16
15 3 11 11 20 16 20 6 0 7 5 4 10 -3 6 0 10 7 10 9 0 9 3 -2 10 -13 8 -12 10
4 10 11 0 17 3 13 6 -8 8 32 84 45 84 5 0 6 5 3 10 -3 6 -1 10 5 10 6 0 8 5 5
10 -3 6 -1 10 5 10 7 0 10 7 6 15 -3 8 2 19 11 23 9 6 14 16 10 25 -4 11 -2
14 9 10 9 -3 14 2 14 16 0 12 5 21 10 21 6 0 10 9 10 20 0 11 5 20 10 20 6 0
10 9 10 21 0 11 5 17 10 14 6 -3 10 3 10 14 0 12 5 21 10 21 6 0 10 7 10 16 0
8 7 22 16 31 8 9 13 22 10 30 -3 8 -2 12 3 9 9 -6 26 22 23 37 -1 4 2 7 7 7 5
0 8 8 7 18 0 9 5 16 12 14 10 -2 14 10 11 34 0 4 4 10 11 14 6 4 12 16 13 28
0 11 5 18 9 16 4 -3 9 0 9 5 1 6 2 16 3 21 0 6 7 14 14 19 8 5 14 12 15 17 1
5 6 8 11 6 5 -2 4 4 -4 12 -9 12 -9 16 -1 16 7 0 9 5 6 10 -3 6 1 13 10 16 9
4 14 13 11 20 -3 7 2 20 10 29 8 8 16 24 17 34 0 11 5 17 9 15 4 -3 8 2 8 11
0 9 4 14 8 11 4 -2 9 7 10 21 2 30 11 45 21 38 5 -2 7 7 5 20 -1 14 2 23 7 19
5 -3 10 0 10 5 1 6 3 16 4 21 1 6 3 15 4 21 0 5 7 7 14 3 6 -4 9 -3 4 1 -4 5
0 19 9 33 9 13 11 22 5 18 -5 -4 -4 6 4 20 8 15 12 31 9 36 -3 4 1 5 9 2 11
-4 13 2 11 23 -4 24 -3 25 5 8 9 -18 10 -17 11 10 2 17 2 34 1 38 -1 5 3 6 9
2 10 -6 14 7 11 33 -1 6 5 12 14 12 9 0 13 5 10 10 -4 6 2 27 13 48 10 20 17
42 15 49 -2 6 1 14 6 18 6 3 11 17 11 31 0 13 5 24 10 24 6 0 10 9 10 20 0 11
6 20 13 20 8 0 7 4 -3 10 -10 6 -11 10 -2 10 6 0 12 9 12 20 0 11 5 20 10 20
6 0 10 5 10 11 0 5 -5 7 -10 4 -6 -3 -1 10 11 29 13 22 16 36 9 36 -8 0 -7 5
3 14 7 8 13 25 12 38 -1 12 2 26 7 29 6 4 11 25 11 48 1 22 5 41 9 41 4 0 4 7
1 17 -4 9 -2 14 3 11 5 -4 10 5 11 19 1 19 -1 22 -8 12 -6 -10 -8 -8 -6 8 0
12 4 20 8 18 3 -3 6 20 6 50 0 32 -5 55 -11 55 -7 0 -8 3 -1 8 12 9 16 54 4
46 -5 -3 -9 11 -9 30 0 19 -5 38 -10 41 -6 4 -7 11 -4 17 4 7 2 8 -4 4 -7 -4
-12 -1 -12 8 0 8 -9 21 -20 29 -11 8 -17 17 -13 20 3 4 -1 7 -10 7 -10 0 -17
7 -17 16 0 11 -6 15 -20 11 -11 -3 -18 0 -17 6 1 6 -11 12 -27 12 -16 0 -31 6
-34 13 -2 8 -25 12 -63 12 -41 0 -58 3 -53 11 4 7 -1 7 -16 -1 -15 -8 -20 -8
-16 -1 4 6 0 11 -9 11 -9 0 -13 -4 -10 -10 3 -5 2 -10 -4 -10 -5 0 -12 6 -14
13 -4 9 -8 8 -16 -3 -7 -10 -11 -11 -11 -2 0 8 -19 12 -61 12 -33 0 -58 4 -55
8 2 4 -5 9 -17 9 -17 2 -19 0 -7 -7 13 -8 12 -10 -2 -10 -10 0 -18 5 -18 10 0
6 -5 10 -11 10 -5 0 -7 -6 -3 -12 6 -10 4 -10 -7 -2 -8 6 -41 12 -74 13 -34 1
-63 7 -67 14 -4 7 -8 7 -8 2 0 -14 -57 -18 -65 -5 -3 5 -11 10 -16 10 -6 0 -8
-4 -5 -8 2 -4 -5 -9 -17 -9 -17 -2 -19 0 -7 7 12 8 10 10 -7 10 -13 0 -23 -6
-23 -12 0 -10 -2 -10 -9 0 -5 8 -29 13 -62 14 -30 0 -57 5 -61 11 -6 9 -8 8
-8 -2 0 -11 -3 -11 -17 0 -11 10 -14 10 -9 2 4 -7 3 -13 -1 -13 -5 0 -15 6
-22 13 -11 10 -13 10 -7 0 4 -7 2 -13 -3 -13 -6 0 -11 6 -11 13 0 9 -3 8 -9
-2 -7 -11 -9 -11 -14 0 -5 12 -7 12 -15 1 -7 -11 -11 -10 -16 4 -6 16 -8 16
-23 1 -15 -14 -18 -14 -41 1 -25 16 -26 16 -19 -3 6 -17 5 -18 -5 -5 -10 11
-36 15 -110 15 -54 0 -98 4 -98 9 0 4 -8 2 -17 -5 -11 -10 -14 -10 -9 -1 4 6
3 12 -3 12 -5 0 -12 -6 -15 -12 -5 -10 -7 -10 -12 0 -3 6 -10 10 -15 7 -5 -3
-22 -8 -39 -10 -24 -3 -29 -1 -21 8 7 9 4 12 -15 12 -13 -1 -27 -5 -31 -10 -5
-4 -1 -5 7 0 8 5 12 4 7 0 -10 -11 -39 -16 -32 -5 3 4 -7 10 -21 13 -20 3 -24
1 -19 -11 4 -12 0 -11 -16 4 -12 10 -19 14 -16 8 9 -15 -20 -27 -29 -12 -5 7
-2 8 6 3 9 -6 11 -4 5 4 -5 9 -11 9 -17 3 -7 -7 -19 -7 -34 -2 -19 8 -24 6
-25 -8 0 -14 -2 -14 -8 2 -5 14 -10 16 -15 8 -4 -7 -12 -10 -17 -6 -17 10 -59
12 -65 2 -3 -4 -10 -5 -16 -2 -16 10 -50 11 -76 2 -13 -4 -21 -5 -19 0 3 4
-10 7 -29 8 -18 0 -31 -3 -28 -8 3 -4 -6 -3 -20 3 -19 9 -29 9 -40 0 -8 -7
-17 -8 -20 -3 -2 4 -17 7 -33 6 -55 -5 -78 -5 -106 -1 -22 3 -27 1 -22 -11 4
-12 3 -12 -9 -3 -10 9 -16 9 -21 1 -5 -8 -14 -6 -28 7 -11 10 -17 13 -14 7 9
-15 -20 -27 -29 -12 -5 7 -2 8 6 3 9 -5 11 -4 6 3 -8 14 -13 15 -19 5z"/>
<path d="M20125 440 c-3 -5 -1 -10 4 -10 6 0 11 5 11 10 0 6 -2 10 -4 10 -3 0
-8 -4 -11 -10z"/>
<path d="M17456 68 c3 -5 10 -6 15 -3 13 9 11 12 -6 12 -8 0 -12 -4 -9 -9z"/>
</g>
</svg>
