<svg width="10" height="14" viewBox="0 0 10 14" fill="none" xmlns="http://www.w3.org/2000/svg">
<path d="M4.646 0.146039C4.69245 0.0994761 4.74762 0.0625332 4.80837 0.0373268C4.86911 0.0121203 4.93423 -0.000854492 5 -0.000854492C5.06577 -0.000854492 5.13089 0.0121203 5.19163 0.0373268C5.25238 0.0625332 5.30755 0.0994761 5.354 0.146039C5.615 0.408039 6.762 1.59604 7.847 3.14904C8.917 4.68004 10 6.66504 10 8.50004C10 10.28 9.423 11.665 8.484 12.605C7.549 13.542 6.291 14 5 14C3.709 14 2.451 13.542 1.516 12.605C0.577 11.665 0 10.281 0 8.50004C0 6.66504 1.083 4.68004 2.153 3.15004C2.90219 2.08355 3.73588 1.07898 4.646 0.146039V0.146039Z" fill="#3FA9F5"/>
</svg>
